<?xml version="1.0" encoding="utf-8" standalone="no"?>
<!DOCTYPE svg PUBLIC "-//W3C//DTD SVG 1.1//EN"
  "http://www.w3.org/Graphics/SVG/1.1/DTD/svg11.dtd">
<svg xmlns:xlink="http://www.w3.org/1999/xlink" width="392.14375pt" height="281.634375pt" viewBox="0 0 392.14375 281.634375" xmlns="http://www.w3.org/2000/svg" version="1.1">
 <metadata>
  <rdf:RDF xmlns:dc="http://purl.org/dc/elements/1.1/" xmlns:cc="http://creativecommons.org/ns#" xmlns:rdf="http://www.w3.org/1999/02/22-rdf-syntax-ns#">
   <cc:Work>
    <dc:type rdf:resource="http://purl.org/dc/dcmitype/StillImage"/>
    <dc:date>2026-06-02T23:47:43.714540</dc:date>
    <dc:format>image/svg+xml</dc:format>
    <dc:creator>
     <cc:Agent>
      <dc:title>Matplotlib v3.10.9, https://matplotlib.org/</dc:title>
     </cc:Agent>
    </dc:creator>
   </cc:Work>
  </rdf:RDF>
 </metadata>
 <defs>
  <style type="text/css">*{stroke-linejoin: round; stroke-linecap: butt}</style>
 </defs>
 <g id="figure_1">
  <g id="patch_1">
   <path d="M 0 281.634375 
L 392.14375 281.634375 
L 392.14375 0 
L 0 0 
z
" style="fill: #ffffff"/>
  </g>
  <g id="axes_1">
   <g id="patch_2">
    <path d="M 50.14375 244.078125 
L 384.94375 244.078125 
L 384.94375 22.318125 
L 50.14375 22.318125 
z
" style="fill: #ffffff"/>
   </g>
   <g id="matplotlib.axis_1">
    <g id="xtick_1">
     <g id="line2d_1">
      <defs>
       <path id="m0e29a7296c" d="M 0 0 
L 0 3.5 
" style="stroke: #000000; stroke-width: 0.8"/>
      </defs>
      <g>
       <use xlink:href="#m0e29a7296c" x="65.361932" y="244.078125" style="stroke: #000000; stroke-width: 0.8"/>
      </g>
     </g>
     <g id="text_1">
      <!-- 0 -->
      <g transform="translate(62.180682 258.676562) scale(0.1 -0.1)">
       <defs>
        <path id="DejaVuSans-30" d="M 2034 4250 
Q 1547 4250 1301 3770 
Q 1056 3291 1056 2328 
Q 1056 1369 1301 889 
Q 1547 409 2034 409 
Q 2525 409 2770 889 
Q 3016 1369 3016 2328 
Q 3016 3291 2770 3770 
Q 2525 4250 2034 4250 
z
M 2034 4750 
Q 2819 4750 3233 4129 
Q 3647 3509 3647 2328 
Q 3647 1150 3233 529 
Q 2819 -91 2034 -91 
Q 1250 -91 836 529 
Q 422 1150 422 2328 
Q 422 3509 836 4129 
Q 1250 4750 2034 4750 
z
" transform="scale(0.015625)"/>
       </defs>
       <use xlink:href="#DejaVuSans-30"/>
      </g>
     </g>
    </g>
    <g id="xtick_2">
     <g id="line2d_2">
      <g>
       <use xlink:href="#m0e29a7296c" x="126.849535" y="244.078125" style="stroke: #000000; stroke-width: 0.8"/>
      </g>
     </g>
     <g id="text_2">
      <!-- 20 -->
      <g transform="translate(120.487035 258.676562) scale(0.1 -0.1)">
       <defs>
        <path id="DejaVuSans-32" d="M 1228 531 
L 3431 531 
L 3431 0 
L 469 0 
L 469 531 
Q 828 903 1448 1529 
Q 2069 2156 2228 2338 
Q 2531 2678 2651 2914 
Q 2772 3150 2772 3378 
Q 2772 3750 2511 3984 
Q 2250 4219 1831 4219 
Q 1534 4219 1204 4116 
Q 875 4013 500 3803 
L 500 4441 
Q 881 4594 1212 4672 
Q 1544 4750 1819 4750 
Q 2544 4750 2975 4387 
Q 3406 4025 3406 3419 
Q 3406 3131 3298 2873 
Q 3191 2616 2906 2266 
Q 2828 2175 2409 1742 
Q 1991 1309 1228 531 
z
" transform="scale(0.015625)"/>
       </defs>
       <use xlink:href="#DejaVuSans-32"/>
       <use xlink:href="#DejaVuSans-30" transform="translate(63.623047 0)"/>
      </g>
     </g>
    </g>
    <g id="xtick_3">
     <g id="line2d_3">
      <g>
       <use xlink:href="#m0e29a7296c" x="188.337138" y="244.078125" style="stroke: #000000; stroke-width: 0.8"/>
      </g>
     </g>
     <g id="text_3">
      <!-- 40 -->
      <g transform="translate(181.974638 258.676562) scale(0.1 -0.1)">
       <defs>
        <path id="DejaVuSans-34" d="M 2419 4116 
L 825 1625 
L 2419 1625 
L 2419 4116 
z
M 2253 4666 
L 3047 4666 
L 3047 1625 
L 3713 1625 
L 3713 1100 
L 3047 1100 
L 3047 0 
L 2419 0 
L 2419 1100 
L 313 1100 
L 313 1709 
L 2253 4666 
z
" transform="scale(0.015625)"/>
       </defs>
       <use xlink:href="#DejaVuSans-34"/>
       <use xlink:href="#DejaVuSans-30" transform="translate(63.623047 0)"/>
      </g>
     </g>
    </g>
    <g id="xtick_4">
     <g id="line2d_4">
      <g>
       <use xlink:href="#m0e29a7296c" x="249.824742" y="244.078125" style="stroke: #000000; stroke-width: 0.8"/>
      </g>
     </g>
     <g id="text_4">
      <!-- 60 -->
      <g transform="translate(243.462242 258.676562) scale(0.1 -0.1)">
       <defs>
        <path id="DejaVuSans-36" d="M 2113 2584 
Q 1688 2584 1439 2293 
Q 1191 2003 1191 1497 
Q 1191 994 1439 701 
Q 1688 409 2113 409 
Q 2538 409 2786 701 
Q 3034 994 3034 1497 
Q 3034 2003 2786 2293 
Q 2538 2584 2113 2584 
z
M 3366 4563 
L 3366 3988 
Q 3128 4100 2886 4159 
Q 2644 4219 2406 4219 
Q 1781 4219 1451 3797 
Q 1122 3375 1075 2522 
Q 1259 2794 1537 2939 
Q 1816 3084 2150 3084 
Q 2853 3084 3261 2657 
Q 3669 2231 3669 1497 
Q 3669 778 3244 343 
Q 2819 -91 2113 -91 
Q 1303 -91 875 529 
Q 447 1150 447 2328 
Q 447 3434 972 4092 
Q 1497 4750 2381 4750 
Q 2619 4750 2861 4703 
Q 3103 4656 3366 4563 
z
" transform="scale(0.015625)"/>
       </defs>
       <use xlink:href="#DejaVuSans-36"/>
       <use xlink:href="#DejaVuSans-30" transform="translate(63.623047 0)"/>
      </g>
     </g>
    </g>
    <g id="xtick_5">
     <g id="line2d_5">
      <g>
       <use xlink:href="#m0e29a7296c" x="311.312345" y="244.078125" style="stroke: #000000; stroke-width: 0.8"/>
      </g>
     </g>
     <g id="text_5">
      <!-- 80 -->
      <g transform="translate(304.949845 258.676562) scale(0.1 -0.1)">
       <defs>
        <path id="DejaVuSans-38" d="M 2034 2216 
Q 1584 2216 1326 1975 
Q 1069 1734 1069 1313 
Q 1069 891 1326 650 
Q 1584 409 2034 409 
Q 2484 409 2743 651 
Q 3003 894 3003 1313 
Q 3003 1734 2745 1975 
Q 2488 2216 2034 2216 
z
M 1403 2484 
Q 997 2584 770 2862 
Q 544 3141 544 3541 
Q 544 4100 942 4425 
Q 1341 4750 2034 4750 
Q 2731 4750 3128 4425 
Q 3525 4100 3525 3541 
Q 3525 3141 3298 2862 
Q 3072 2584 2669 2484 
Q 3125 2378 3379 2068 
Q 3634 1759 3634 1313 
Q 3634 634 3220 271 
Q 2806 -91 2034 -91 
Q 1263 -91 848 271 
Q 434 634 434 1313 
Q 434 1759 690 2068 
Q 947 2378 1403 2484 
z
M 1172 3481 
Q 1172 3119 1398 2916 
Q 1625 2713 2034 2713 
Q 2441 2713 2670 2916 
Q 2900 3119 2900 3481 
Q 2900 3844 2670 4047 
Q 2441 4250 2034 4250 
Q 1625 4250 1398 4047 
Q 1172 3844 1172 3481 
z
" transform="scale(0.015625)"/>
       </defs>
       <use xlink:href="#DejaVuSans-38"/>
       <use xlink:href="#DejaVuSans-30" transform="translate(63.623047 0)"/>
      </g>
     </g>
    </g>
    <g id="xtick_6">
     <g id="line2d_6">
      <g>
       <use xlink:href="#m0e29a7296c" x="372.799948" y="244.078125" style="stroke: #000000; stroke-width: 0.8"/>
      </g>
     </g>
     <g id="text_6">
      <!-- 100 -->
      <g transform="translate(363.256198 258.676562) scale(0.1 -0.1)">
       <defs>
        <path id="DejaVuSans-31" d="M 794 531 
L 1825 531 
L 1825 4091 
L 703 3866 
L 703 4441 
L 1819 4666 
L 2450 4666 
L 2450 531 
L 3481 531 
L 3481 0 
L 794 0 
L 794 531 
z
" transform="scale(0.015625)"/>
       </defs>
       <use xlink:href="#DejaVuSans-31"/>
       <use xlink:href="#DejaVuSans-30" transform="translate(63.623047 0)"/>
       <use xlink:href="#DejaVuSans-30" transform="translate(127.246094 0)"/>
      </g>
     </g>
    </g>
    <g id="text_7">
     <!-- Step -->
     <g transform="translate(206.158594 272.354687) scale(0.1 -0.1)">
      <defs>
       <path id="DejaVuSans-53" d="M 3425 4513 
L 3425 3897 
Q 3066 4069 2747 4153 
Q 2428 4238 2131 4238 
Q 1616 4238 1336 4038 
Q 1056 3838 1056 3469 
Q 1056 3159 1242 3001 
Q 1428 2844 1947 2747 
L 2328 2669 
Q 3034 2534 3370 2195 
Q 3706 1856 3706 1288 
Q 3706 609 3251 259 
Q 2797 -91 1919 -91 
Q 1588 -91 1214 -16 
Q 841 59 441 206 
L 441 856 
Q 825 641 1194 531 
Q 1563 422 1919 422 
Q 2459 422 2753 634 
Q 3047 847 3047 1241 
Q 3047 1584 2836 1778 
Q 2625 1972 2144 2069 
L 1759 2144 
Q 1053 2284 737 2584 
Q 422 2884 422 3419 
Q 422 4038 858 4394 
Q 1294 4750 2059 4750 
Q 2388 4750 2728 4690 
Q 3069 4631 3425 4513 
z
" transform="scale(0.015625)"/>
       <path id="DejaVuSans-74" d="M 1172 4494 
L 1172 3500 
L 2356 3500 
L 2356 3053 
L 1172 3053 
L 1172 1153 
Q 1172 725 1289 603 
Q 1406 481 1766 481 
L 2356 481 
L 2356 0 
L 1766 0 
Q 1100 0 847 248 
Q 594 497 594 1153 
L 594 3053 
L 172 3053 
L 172 3500 
L 594 3500 
L 594 4494 
L 1172 4494 
z
" transform="scale(0.015625)"/>
       <path id="DejaVuSans-65" d="M 3597 1894 
L 3597 1613 
L 953 1613 
Q 991 1019 1311 708 
Q 1631 397 2203 397 
Q 2534 397 2845 478 
Q 3156 559 3463 722 
L 3463 178 
Q 3153 47 2828 -22 
Q 2503 -91 2169 -91 
Q 1331 -91 842 396 
Q 353 884 353 1716 
Q 353 2575 817 3079 
Q 1281 3584 2069 3584 
Q 2775 3584 3186 3129 
Q 3597 2675 3597 1894 
z
M 3022 2063 
Q 3016 2534 2758 2815 
Q 2500 3097 2075 3097 
Q 1594 3097 1305 2825 
Q 1016 2553 972 2059 
L 3022 2063 
z
" transform="scale(0.015625)"/>
       <path id="DejaVuSans-70" d="M 1159 525 
L 1159 -1331 
L 581 -1331 
L 581 3500 
L 1159 3500 
L 1159 2969 
Q 1341 3281 1617 3432 
Q 1894 3584 2278 3584 
Q 2916 3584 3314 3078 
Q 3713 2572 3713 1747 
Q 3713 922 3314 415 
Q 2916 -91 2278 -91 
Q 1894 -91 1617 61 
Q 1341 213 1159 525 
z
M 3116 1747 
Q 3116 2381 2855 2742 
Q 2594 3103 2138 3103 
Q 1681 3103 1420 2742 
Q 1159 2381 1159 1747 
Q 1159 1113 1420 752 
Q 1681 391 2138 391 
Q 2594 391 2855 752 
Q 3116 1113 3116 1747 
z
" transform="scale(0.015625)"/>
      </defs>
      <use xlink:href="#DejaVuSans-53"/>
      <use xlink:href="#DejaVuSans-74" transform="translate(63.476562 0)"/>
      <use xlink:href="#DejaVuSans-65" transform="translate(102.685547 0)"/>
      <use xlink:href="#DejaVuSans-70" transform="translate(164.208984 0)"/>
     </g>
    </g>
   </g>
   <g id="matplotlib.axis_2">
    <g id="ytick_1">
     <g id="line2d_7">
      <defs>
       <path id="meb1e394280" d="M 0 0 
L -3.5 0 
" style="stroke: #000000; stroke-width: 0.8"/>
      </defs>
      <g>
       <use xlink:href="#meb1e394280" x="50.14375" y="220.294392" style="stroke: #000000; stroke-width: 0.8"/>
      </g>
     </g>
     <g id="text_8">
      <!-- 2.5 -->
      <g transform="translate(27.240625 224.09361) scale(0.1 -0.1)">
       <defs>
        <path id="DejaVuSans-2e" d="M 684 794 
L 1344 794 
L 1344 0 
L 684 0 
L 684 794 
z
" transform="scale(0.015625)"/>
        <path id="DejaVuSans-35" d="M 691 4666 
L 3169 4666 
L 3169 4134 
L 1269 4134 
L 1269 2991 
Q 1406 3038 1543 3061 
Q 1681 3084 1819 3084 
Q 2600 3084 3056 2656 
Q 3513 2228 3513 1497 
Q 3513 744 3044 326 
Q 2575 -91 1722 -91 
Q 1428 -91 1123 -41 
Q 819 9 494 109 
L 494 744 
Q 775 591 1075 516 
Q 1375 441 1709 441 
Q 2250 441 2565 725 
Q 2881 1009 2881 1497 
Q 2881 1984 2565 2268 
Q 2250 2553 1709 2553 
Q 1456 2553 1204 2497 
Q 953 2441 691 2322 
L 691 4666 
z
" transform="scale(0.015625)"/>
       </defs>
       <use xlink:href="#DejaVuSans-32"/>
       <use xlink:href="#DejaVuSans-2e" transform="translate(63.623047 0)"/>
       <use xlink:href="#DejaVuSans-35" transform="translate(95.410156 0)"/>
      </g>
     </g>
    </g>
    <g id="ytick_2">
     <g id="line2d_8">
      <g>
       <use xlink:href="#meb1e394280" x="50.14375" y="191.436503" style="stroke: #000000; stroke-width: 0.8"/>
      </g>
     </g>
     <g id="text_9">
      <!-- 5.0 -->
      <g transform="translate(27.240625 195.235722) scale(0.1 -0.1)">
       <use xlink:href="#DejaVuSans-35"/>
       <use xlink:href="#DejaVuSans-2e" transform="translate(63.623047 0)"/>
       <use xlink:href="#DejaVuSans-30" transform="translate(95.410156 0)"/>
      </g>
     </g>
    </g>
    <g id="ytick_3">
     <g id="line2d_9">
      <g>
       <use xlink:href="#meb1e394280" x="50.14375" y="162.578615" style="stroke: #000000; stroke-width: 0.8"/>
      </g>
     </g>
     <g id="text_10">
      <!-- 7.5 -->
      <g transform="translate(27.240625 166.377834) scale(0.1 -0.1)">
       <defs>
        <path id="DejaVuSans-37" d="M 525 4666 
L 3525 4666 
L 3525 4397 
L 1831 0 
L 1172 0 
L 2766 4134 
L 525 4134 
L 525 4666 
z
" transform="scale(0.015625)"/>
       </defs>
       <use xlink:href="#DejaVuSans-37"/>
       <use xlink:href="#DejaVuSans-2e" transform="translate(63.623047 0)"/>
       <use xlink:href="#DejaVuSans-35" transform="translate(95.410156 0)"/>
      </g>
     </g>
    </g>
    <g id="ytick_4">
     <g id="line2d_10">
      <g>
       <use xlink:href="#meb1e394280" x="50.14375" y="133.720727" style="stroke: #000000; stroke-width: 0.8"/>
      </g>
     </g>
     <g id="text_11">
      <!-- 10.0 -->
      <g transform="translate(20.878125 137.519945) scale(0.1 -0.1)">
       <use xlink:href="#DejaVuSans-31"/>
       <use xlink:href="#DejaVuSans-30" transform="translate(63.623047 0)"/>
       <use xlink:href="#DejaVuSans-2e" transform="translate(127.246094 0)"/>
       <use xlink:href="#DejaVuSans-30" transform="translate(159.033203 0)"/>
      </g>
     </g>
    </g>
    <g id="ytick_5">
     <g id="line2d_11">
      <g>
       <use xlink:href="#meb1e394280" x="50.14375" y="104.862838" style="stroke: #000000; stroke-width: 0.8"/>
      </g>
     </g>
     <g id="text_12">
      <!-- 12.5 -->
      <g transform="translate(20.878125 108.662057) scale(0.1 -0.1)">
       <use xlink:href="#DejaVuSans-31"/>
       <use xlink:href="#DejaVuSans-32" transform="translate(63.623047 0)"/>
       <use xlink:href="#DejaVuSans-2e" transform="translate(127.246094 0)"/>
       <use xlink:href="#DejaVuSans-35" transform="translate(159.033203 0)"/>
      </g>
     </g>
    </g>
    <g id="ytick_6">
     <g id="line2d_12">
      <g>
       <use xlink:href="#meb1e394280" x="50.14375" y="76.00495" style="stroke: #000000; stroke-width: 0.8"/>
      </g>
     </g>
     <g id="text_13">
      <!-- 15.0 -->
      <g transform="translate(20.878125 79.804169) scale(0.1 -0.1)">
       <use xlink:href="#DejaVuSans-31"/>
       <use xlink:href="#DejaVuSans-35" transform="translate(63.623047 0)"/>
       <use xlink:href="#DejaVuSans-2e" transform="translate(127.246094 0)"/>
       <use xlink:href="#DejaVuSans-30" transform="translate(159.033203 0)"/>
      </g>
     </g>
    </g>
    <g id="ytick_7">
     <g id="line2d_13">
      <g>
       <use xlink:href="#meb1e394280" x="50.14375" y="47.147062" style="stroke: #000000; stroke-width: 0.8"/>
      </g>
     </g>
     <g id="text_14">
      <!-- 17.5 -->
      <g transform="translate(20.878125 50.94628) scale(0.1 -0.1)">
       <use xlink:href="#DejaVuSans-31"/>
       <use xlink:href="#DejaVuSans-37" transform="translate(63.623047 0)"/>
       <use xlink:href="#DejaVuSans-2e" transform="translate(127.246094 0)"/>
       <use xlink:href="#DejaVuSans-35" transform="translate(159.033203 0)"/>
      </g>
     </g>
    </g>
    <g id="text_15">
     <!-- Loss -->
     <g transform="translate(14.798438 144.165312) rotate(-90) scale(0.1 -0.1)">
      <defs>
       <path id="DejaVuSans-4c" d="M 628 4666 
L 1259 4666 
L 1259 531 
L 3531 531 
L 3531 0 
L 628 0 
L 628 4666 
z
" transform="scale(0.015625)"/>
       <path id="DejaVuSans-6f" d="M 1959 3097 
Q 1497 3097 1228 2736 
Q 959 2375 959 1747 
Q 959 1119 1226 758 
Q 1494 397 1959 397 
Q 2419 397 2687 759 
Q 2956 1122 2956 1747 
Q 2956 2369 2687 2733 
Q 2419 3097 1959 3097 
z
M 1959 3584 
Q 2709 3584 3137 3096 
Q 3566 2609 3566 1747 
Q 3566 888 3137 398 
Q 2709 -91 1959 -91 
Q 1206 -91 779 398 
Q 353 888 353 1747 
Q 353 2609 779 3096 
Q 1206 3584 1959 3584 
z
" transform="scale(0.015625)"/>
       <path id="DejaVuSans-73" d="M 2834 3397 
L 2834 2853 
Q 2591 2978 2328 3040 
Q 2066 3103 1784 3103 
Q 1356 3103 1142 2972 
Q 928 2841 928 2578 
Q 928 2378 1081 2264 
Q 1234 2150 1697 2047 
L 1894 2003 
Q 2506 1872 2764 1633 
Q 3022 1394 3022 966 
Q 3022 478 2636 193 
Q 2250 -91 1575 -91 
Q 1294 -91 989 -36 
Q 684 19 347 128 
L 347 722 
Q 666 556 975 473 
Q 1284 391 1588 391 
Q 1994 391 2212 530 
Q 2431 669 2431 922 
Q 2431 1156 2273 1281 
Q 2116 1406 1581 1522 
L 1381 1569 
Q 847 1681 609 1914 
Q 372 2147 372 2553 
Q 372 3047 722 3315 
Q 1072 3584 1716 3584 
Q 2034 3584 2315 3537 
Q 2597 3491 2834 3397 
z
" transform="scale(0.015625)"/>
      </defs>
      <use xlink:href="#DejaVuSans-4c"/>
      <use xlink:href="#DejaVuSans-6f" transform="translate(53.962891 0)"/>
      <use xlink:href="#DejaVuSans-73" transform="translate(115.144531 0)"/>
      <use xlink:href="#DejaVuSans-73" transform="translate(167.244141 0)"/>
     </g>
    </g>
   </g>
   <g id="line2d_14">
    <path d="M 65.361932 45.222175 
L 68.436312 107.086713 
L 71.510692 139.017071 
L 74.585072 159.65624 
L 77.659452 174.28563 
L 80.733833 185.208291 
L 83.808213 193.645093 
L 86.882593 200.320693 
L 89.956973 205.698312 
L 93.031353 210.09031 
L 96.105733 213.716032 
L 99.180114 216.73466 
L 102.254494 219.264874 
L 105.328874 221.397206 
L 108.403254 223.202095 
L 111.477634 224.735231 
L 114.552014 226.041297 
L 117.626395 227.156552 
L 120.700775 228.110726 
L 123.775155 228.928397 
L 126.849535 229.630028 
L 129.923915 230.232752 
L 132.998295 230.750999 
L 136.072676 231.196962 
L 139.147056 231.580971 
L 142.221436 231.911818 
L 145.295816 232.197 
L 148.370196 232.44292 
L 151.444576 232.655058 
L 154.518957 232.8381 
L 157.593337 232.996084 
L 160.667717 233.13247 
L 163.742097 233.250229 
L 166.816477 233.351924 
L 169.890857 233.439756 
L 172.965238 233.515624 
L 176.039618 233.581166 
L 179.113998 233.637791 
L 182.188378 233.686715 
L 185.262758 233.728989 
L 188.337138 233.76552 
L 191.411519 233.797088 
L 194.485899 233.82437 
L 197.560279 233.847948 
L 200.634659 233.868326 
L 203.709039 233.885936 
L 206.783419 233.901157 
L 209.8578 233.914314 
L 212.93218 233.925687 
L 216.00656 233.935513 
L 219.08094 233.944012 
L 222.15532 233.951356 
L 225.2297 233.957702 
L 228.304081 233.963188 
L 231.378461 233.967933 
L 234.452841 233.972032 
L 237.527221 233.975574 
L 240.601601 233.978637 
L 243.675981 233.981285 
L 246.750362 233.983575 
L 249.824742 233.985553 
L 252.899122 233.987264 
L 255.973502 233.988742 
L 259.047882 233.990019 
L 262.122262 233.991125 
L 265.196643 233.992077 
L 268.271023 233.992906 
L 271.345403 233.993618 
L 274.419783 233.994235 
L 277.494163 233.994767 
L 280.568543 233.995228 
L 283.642924 233.995627 
L 286.717304 233.99597 
L 289.791684 233.99627 
L 292.866064 233.996527 
L 295.940444 233.996749 
L 299.014824 233.99694 
L 302.089205 233.997107 
L 305.163585 233.997251 
L 308.237965 233.997376 
L 311.312345 233.997484 
L 314.386725 233.997575 
L 317.461105 233.997656 
L 320.535486 233.997725 
L 323.609866 233.997785 
L 326.684246 233.997836 
L 329.758626 233.997881 
L 332.833006 233.99792 
L 335.907386 233.997953 
L 338.981767 233.997983 
L 342.056147 233.998007 
L 345.130527 233.99803 
L 348.204907 233.998049 
L 351.279287 233.998064 
L 354.353667 233.998078 
L 357.428048 233.998091 
L 360.502428 233.998102 
L 363.576808 233.998108 
L 366.651188 233.998118 
L 369.725568 233.998125 
" clip-path="url(#p02665fb25b)" style="fill: none; stroke: #1f77b4; stroke-width: 1.5; stroke-linecap: square"/>
   </g>
   <g id="line2d_15">
    <path d="M 65.361932 144.983355 
L 68.436312 156.579251 
L 71.510692 164.128522 
L 74.585072 170.019794 
L 77.659452 174.94826 
L 80.733833 179.228374 
L 83.808213 183.03347 
L 86.882593 186.470571 
L 89.956973 189.610962 
L 93.031353 192.504754 
L 96.105733 195.188687 
L 99.180114 197.690547 
L 102.254494 200.031903 
L 105.328874 202.22987 
L 108.403254 204.298279 
L 111.477634 206.248474 
L 114.552014 208.089892 
L 117.626395 209.830479 
L 120.700775 211.477004 
L 123.775155 213.03522 
L 126.849535 214.509832 
L 129.923915 215.903068 
L 132.998295 217.208252 
L 136.072676 218.430244 
L 139.147056 219.62999 
L 142.221436 220.766826 
L 145.295816 221.828727 
L 148.370196 222.825533 
L 151.444576 223.762891 
L 154.518957 224.643983 
L 157.593337 225.471138 
L 160.667717 226.246389 
L 163.742097 226.971586 
L 166.816477 227.64849 
L 169.890857 228.278654 
L 172.965238 228.863355 
L 176.039618 229.403337 
L 179.113998 229.89923 
L 182.188378 230.354819 
L 185.262758 230.778356 
L 188.337138 231.171674 
L 191.411519 231.530741 
L 194.485899 231.854977 
L 197.560279 232.146454 
L 200.634659 232.407561 
L 203.709039 232.640425 
L 206.783419 232.846951 
L 209.8578 233.028905 
L 212.93218 233.187957 
L 216.00656 233.325676 
L 219.08094 233.4437 
L 222.15532 233.544031 
L 225.2297 233.629365 
L 228.304081 233.702451 
L 231.378461 233.764824 
L 234.452841 233.816968 
L 237.527221 233.859441 
L 240.601601 233.893266 
L 243.675981 233.919698 
L 246.750362 233.939965 
L 249.824742 233.955152 
L 252.899122 233.96619 
L 255.973502 233.973882 
L 259.047882 233.978933 
L 262.122262 233.982049 
L 265.196643 233.983965 
L 268.271023 233.985387 
L 271.345403 233.986768 
L 274.419783 233.988217 
L 277.494163 233.989596 
L 280.568543 233.990741 
L 283.642924 233.991572 
L 286.717304 233.992077 
L 289.791684 233.992282 
L 292.866064 233.992222 
L 295.940444 233.991933 
L 299.014824 233.991476 
L 302.089205 233.99092 
L 305.163585 233.99039 
L 308.237965 233.99001 
L 311.312345 233.989873 
L 314.386725 233.989994 
L 317.461105 233.990313 
L 320.535486 233.990722 
L 323.609866 233.991114 
L 326.684246 233.991421 
L 329.758626 233.991604 
L 332.833006 233.991647 
L 335.907386 233.99156 
L 338.981767 233.991364 
L 342.056147 233.991104 
L 345.130527 233.990831 
L 348.204907 233.990602 
L 351.279287 233.990465 
L 354.353667 233.990445 
L 357.428048 233.990535 
L 360.502428 233.990703 
L 363.576808 233.990899 
L 366.651188 233.991082 
L 369.725568 233.991219 
" clip-path="url(#p02665fb25b)" style="fill: none; stroke: #ff7f0e; stroke-width: 1.5; stroke-linecap: square"/>
   </g>
   <g id="line2d_16">
    <path d="M 65.361932 32.398125 
L 68.436312 32.959994 
L 71.510692 33.692318 
L 74.585072 34.579464 
L 77.659452 35.612933 
L 80.733833 36.787509 
L 83.808213 38.099931 
L 86.882593 39.548176 
L 89.956973 41.131075 
L 93.031353 42.848079 
L 96.105733 44.699121 
L 99.180114 46.684488 
L 102.254494 48.804774 
L 105.328874 51.060662 
L 108.403254 53.452966 
L 111.477634 55.982456 
L 114.552014 58.649816 
L 117.626395 61.455574 
L 120.700775 64.399905 
L 123.775155 67.482635 
L 126.849535 70.703079 
L 129.923915 74.060006 
L 132.998295 77.55161 
L 136.072676 81.175303 
L 139.147056 84.927729 
L 142.221436 88.804792 
L 145.295816 92.801429 
L 148.370196 96.911628 
L 151.444576 101.128576 
L 154.518957 105.444325 
L 157.593337 109.850045 
L 160.667717 114.335873 
L 163.742097 118.891043 
L 166.816477 123.503832 
L 169.890857 128.161633 
L 172.965238 132.851062 
L 176.039618 137.558016 
L 179.113998 142.267767 
L 182.188378 146.965144 
L 185.262758 151.634625 
L 188.337138 156.26047 
L 191.411519 160.827012 
L 194.485899 165.318696 
L 197.560279 169.72036 
L 200.634659 174.017416 
L 203.709039 178.196022 
L 206.783419 182.243286 
L 209.8578 186.14743 
L 212.93218 189.897924 
L 216.00656 193.485713 
L 219.08094 196.903192 
L 222.15532 200.144398 
L 225.2297 203.205014 
L 228.304081 206.082393 
L 231.378461 208.775535 
L 234.452841 211.285045 
L 237.527221 213.613046 
L 240.601601 215.763101 
L 243.675981 217.740033 
L 246.750362 219.549794 
L 249.824742 221.199324 
L 252.899122 222.696347 
L 255.973502 224.049212 
L 259.047882 225.266717 
L 262.122262 226.357926 
L 265.196643 227.332048 
L 268.271023 228.198258 
L 271.345403 228.965605 
L 274.419783 229.642883 
L 277.494163 230.238534 
L 280.568543 230.760611 
L 283.642924 231.216686 
L 286.717304 231.613852 
L 289.791684 231.958659 
L 292.866064 232.257149 
L 295.940444 232.514824 
L 299.014824 232.736681 
L 302.089205 232.927224 
L 305.163585 233.09048 
L 308.237965 233.230046 
L 311.312345 233.349102 
L 314.386725 233.450462 
L 317.461105 233.536596 
L 320.535486 233.609655 
L 323.609866 233.671525 
L 326.684246 233.723839 
L 329.758626 233.768001 
L 332.833006 233.805236 
L 335.907386 233.836592 
L 338.981767 233.862961 
L 342.056147 233.885115 
L 345.130527 233.903704 
L 348.204907 233.919292 
L 351.279287 233.932347 
L 354.353667 233.943276 
L 357.428048 233.952411 
L 360.502428 233.960048 
L 363.576808 233.966424 
L 366.651188 233.971745 
L 369.725568 233.976185 
" clip-path="url(#p02665fb25b)" style="fill: none; stroke: #2ca02c; stroke-width: 1.5; stroke-linecap: square"/>
   </g>
   <g id="patch_3">
    <path d="M 50.14375 244.078125 
L 50.14375 22.318125 
" style="fill: none; stroke: #000000; stroke-width: 0.8; stroke-linejoin: miter; stroke-linecap: square"/>
   </g>
   <g id="patch_4">
    <path d="M 384.94375 244.078125 
L 384.94375 22.318125 
" style="fill: none; stroke: #000000; stroke-width: 0.8; stroke-linejoin: miter; stroke-linecap: square"/>
   </g>
   <g id="patch_5">
    <path d="M 50.14375 244.078125 
L 384.94375 244.078125 
" style="fill: none; stroke: #000000; stroke-width: 0.8; stroke-linejoin: miter; stroke-linecap: square"/>
   </g>
   <g id="patch_6">
    <path d="M 50.14375 22.318125 
L 384.94375 22.318125 
" style="fill: none; stroke: #000000; stroke-width: 0.8; stroke-linejoin: miter; stroke-linecap: square"/>
   </g>
   <g id="text_16">
    <!-- Adagrad, RMSprop, and Adadelta -->
    <g transform="translate(118.015938 16.318125) scale(0.12 -0.12)">
     <defs>
      <path id="DejaVuSans-41" d="M 2188 4044 
L 1331 1722 
L 3047 1722 
L 2188 4044 
z
M 1831 4666 
L 2547 4666 
L 4325 0 
L 3669 0 
L 3244 1197 
L 1141 1197 
L 716 0 
L 50 0 
L 1831 4666 
z
" transform="scale(0.015625)"/>
      <path id="DejaVuSans-64" d="M 2906 2969 
L 2906 4863 
L 3481 4863 
L 3481 0 
L 2906 0 
L 2906 525 
Q 2725 213 2448 61 
Q 2172 -91 1784 -91 
Q 1150 -91 751 415 
Q 353 922 353 1747 
Q 353 2572 751 3078 
Q 1150 3584 1784 3584 
Q 2172 3584 2448 3432 
Q 2725 3281 2906 2969 
z
M 947 1747 
Q 947 1113 1208 752 
Q 1469 391 1925 391 
Q 2381 391 2643 752 
Q 2906 1113 2906 1747 
Q 2906 2381 2643 2742 
Q 2381 3103 1925 3103 
Q 1469 3103 1208 2742 
Q 947 2381 947 1747 
z
" transform="scale(0.015625)"/>
      <path id="DejaVuSans-61" d="M 2194 1759 
Q 1497 1759 1228 1600 
Q 959 1441 959 1056 
Q 959 750 1161 570 
Q 1363 391 1709 391 
Q 2188 391 2477 730 
Q 2766 1069 2766 1631 
L 2766 1759 
L 2194 1759 
z
M 3341 1997 
L 3341 0 
L 2766 0 
L 2766 531 
Q 2569 213 2275 61 
Q 1981 -91 1556 -91 
Q 1019 -91 701 211 
Q 384 513 384 1019 
Q 384 1609 779 1909 
Q 1175 2209 1959 2209 
L 2766 2209 
L 2766 2266 
Q 2766 2663 2505 2880 
Q 2244 3097 1772 3097 
Q 1472 3097 1187 3025 
Q 903 2953 641 2809 
L 641 3341 
Q 956 3463 1253 3523 
Q 1550 3584 1831 3584 
Q 2591 3584 2966 3190 
Q 3341 2797 3341 1997 
z
" transform="scale(0.015625)"/>
      <path id="DejaVuSans-67" d="M 2906 1791 
Q 2906 2416 2648 2759 
Q 2391 3103 1925 3103 
Q 1463 3103 1205 2759 
Q 947 2416 947 1791 
Q 947 1169 1205 825 
Q 1463 481 1925 481 
Q 2391 481 2648 825 
Q 2906 1169 2906 1791 
z
M 3481 434 
Q 3481 -459 3084 -895 
Q 2688 -1331 1869 -1331 
Q 1566 -1331 1297 -1286 
Q 1028 -1241 775 -1147 
L 775 -588 
Q 1028 -725 1275 -790 
Q 1522 -856 1778 -856 
Q 2344 -856 2625 -561 
Q 2906 -266 2906 331 
L 2906 616 
Q 2728 306 2450 153 
Q 2172 0 1784 0 
Q 1141 0 747 490 
Q 353 981 353 1791 
Q 353 2603 747 3093 
Q 1141 3584 1784 3584 
Q 2172 3584 2450 3431 
Q 2728 3278 2906 2969 
L 2906 3500 
L 3481 3500 
L 3481 434 
z
" transform="scale(0.015625)"/>
      <path id="DejaVuSans-72" d="M 2631 2963 
Q 2534 3019 2420 3045 
Q 2306 3072 2169 3072 
Q 1681 3072 1420 2755 
Q 1159 2438 1159 1844 
L 1159 0 
L 581 0 
L 581 3500 
L 1159 3500 
L 1159 2956 
Q 1341 3275 1631 3429 
Q 1922 3584 2338 3584 
Q 2397 3584 2469 3576 
Q 2541 3569 2628 3553 
L 2631 2963 
z
" transform="scale(0.015625)"/>
      <path id="DejaVuSans-2c" d="M 750 794 
L 1409 794 
L 1409 256 
L 897 -744 
L 494 -744 
L 750 256 
L 750 794 
z
" transform="scale(0.015625)"/>
      <path id="DejaVuSans-20" transform="scale(0.015625)"/>
      <path id="DejaVuSans-52" d="M 2841 2188 
Q 3044 2119 3236 1894 
Q 3428 1669 3622 1275 
L 4263 0 
L 3584 0 
L 2988 1197 
Q 2756 1666 2539 1819 
Q 2322 1972 1947 1972 
L 1259 1972 
L 1259 0 
L 628 0 
L 628 4666 
L 2053 4666 
Q 2853 4666 3247 4331 
Q 3641 3997 3641 3322 
Q 3641 2881 3436 2590 
Q 3231 2300 2841 2188 
z
M 1259 4147 
L 1259 2491 
L 2053 2491 
Q 2509 2491 2742 2702 
Q 2975 2913 2975 3322 
Q 2975 3731 2742 3939 
Q 2509 4147 2053 4147 
L 1259 4147 
z
" transform="scale(0.015625)"/>
      <path id="DejaVuSans-4d" d="M 628 4666 
L 1569 4666 
L 2759 1491 
L 3956 4666 
L 4897 4666 
L 4897 0 
L 4281 0 
L 4281 4097 
L 3078 897 
L 2444 897 
L 1241 4097 
L 1241 0 
L 628 0 
L 628 4666 
z
" transform="scale(0.015625)"/>
      <path id="DejaVuSans-6e" d="M 3513 2113 
L 3513 0 
L 2938 0 
L 2938 2094 
Q 2938 2591 2744 2837 
Q 2550 3084 2163 3084 
Q 1697 3084 1428 2787 
Q 1159 2491 1159 1978 
L 1159 0 
L 581 0 
L 581 3500 
L 1159 3500 
L 1159 2956 
Q 1366 3272 1645 3428 
Q 1925 3584 2291 3584 
Q 2894 3584 3203 3211 
Q 3513 2838 3513 2113 
z
" transform="scale(0.015625)"/>
      <path id="DejaVuSans-6c" d="M 603 4863 
L 1178 4863 
L 1178 0 
L 603 0 
L 603 4863 
z
" transform="scale(0.015625)"/>
     </defs>
     <use xlink:href="#DejaVuSans-41"/>
     <use xlink:href="#DejaVuSans-64" transform="translate(66.658203 0)"/>
     <use xlink:href="#DejaVuSans-61" transform="translate(130.134766 0)"/>
     <use xlink:href="#DejaVuSans-67" transform="translate(191.414062 0)"/>
     <use xlink:href="#DejaVuSans-72" transform="translate(254.890625 0)"/>
     <use xlink:href="#DejaVuSans-61" transform="translate(296.003906 0)"/>
     <use xlink:href="#DejaVuSans-64" transform="translate(357.283203 0)"/>
     <use xlink:href="#DejaVuSans-2c" transform="translate(420.759766 0)"/>
     <use xlink:href="#DejaVuSans-20" transform="translate(452.546875 0)"/>
     <use xlink:href="#DejaVuSans-52" transform="translate(484.333984 0)"/>
     <use xlink:href="#DejaVuSans-4d" transform="translate(553.816406 0)"/>
     <use xlink:href="#DejaVuSans-53" transform="translate(640.095703 0)"/>
     <use xlink:href="#DejaVuSans-70" transform="translate(703.572266 0)"/>
     <use xlink:href="#DejaVuSans-72" transform="translate(767.048828 0)"/>
     <use xlink:href="#DejaVuSans-6f" transform="translate(805.912109 0)"/>
     <use xlink:href="#DejaVuSans-70" transform="translate(867.09375 0)"/>
     <use xlink:href="#DejaVuSans-2c" transform="translate(930.570312 0)"/>
     <use xlink:href="#DejaVuSans-20" transform="translate(962.357422 0)"/>
     <use xlink:href="#DejaVuSans-61" transform="translate(994.144531 0)"/>
     <use xlink:href="#DejaVuSans-6e" transform="translate(1055.423828 0)"/>
     <use xlink:href="#DejaVuSans-64" transform="translate(1118.802734 0)"/>
     <use xlink:href="#DejaVuSans-20" transform="translate(1182.279297 0)"/>
     <use xlink:href="#DejaVuSans-41" transform="translate(1214.066406 0)"/>
     <use xlink:href="#DejaVuSans-64" transform="translate(1280.724609 0)"/>
     <use xlink:href="#DejaVuSans-61" transform="translate(1344.201172 0)"/>
     <use xlink:href="#DejaVuSans-64" transform="translate(1405.480469 0)"/>
     <use xlink:href="#DejaVuSans-65" transform="translate(1468.957031 0)"/>
     <use xlink:href="#DejaVuSans-6c" transform="translate(1530.480469 0)"/>
     <use xlink:href="#DejaVuSans-74" transform="translate(1558.263672 0)"/>
     <use xlink:href="#DejaVuSans-61" transform="translate(1597.472656 0)"/>
    </g>
   </g>
   <g id="legend_1">
    <g id="patch_7">
     <path d="M 301.317187 74.3525 
L 377.94375 74.3525 
Q 379.94375 74.3525 379.94375 72.3525 
L 379.94375 29.318125 
Q 379.94375 27.318125 377.94375 27.318125 
L 301.317187 27.318125 
Q 299.317187 27.318125 299.317187 29.318125 
L 299.317187 72.3525 
Q 299.317187 74.3525 301.317187 74.3525 
z
" style="fill: #ffffff; opacity: 0.8; stroke: #cccccc; stroke-linejoin: miter"/>
    </g>
    <g id="line2d_17">
     <path d="M 303.317187 35.416562 
L 313.317187 35.416562 
L 323.317187 35.416562 
" style="fill: none; stroke: #1f77b4; stroke-width: 1.5; stroke-linecap: square"/>
    </g>
    <g id="text_17">
     <!-- Adagrad -->
     <g transform="translate(331.317187 38.916562) scale(0.1 -0.1)">
      <use xlink:href="#DejaVuSans-41"/>
      <use xlink:href="#DejaVuSans-64" transform="translate(66.658203 0)"/>
      <use xlink:href="#DejaVuSans-61" transform="translate(130.134766 0)"/>
      <use xlink:href="#DejaVuSans-67" transform="translate(191.414062 0)"/>
      <use xlink:href="#DejaVuSans-72" transform="translate(254.890625 0)"/>
      <use xlink:href="#DejaVuSans-61" transform="translate(296.003906 0)"/>
      <use xlink:href="#DejaVuSans-64" transform="translate(357.283203 0)"/>
     </g>
    </g>
    <g id="line2d_18">
     <path d="M 303.317187 50.094687 
L 313.317187 50.094687 
L 323.317187 50.094687 
" style="fill: none; stroke: #ff7f0e; stroke-width: 1.5; stroke-linecap: square"/>
    </g>
    <g id="text_18">
     <!-- RMSprop -->
     <g transform="translate(331.317187 53.594687) scale(0.1 -0.1)">
      <use xlink:href="#DejaVuSans-52"/>
      <use xlink:href="#DejaVuSans-4d" transform="translate(69.482422 0)"/>
      <use xlink:href="#DejaVuSans-53" transform="translate(155.761719 0)"/>
      <use xlink:href="#DejaVuSans-70" transform="translate(219.238281 0)"/>
      <use xlink:href="#DejaVuSans-72" transform="translate(282.714844 0)"/>
      <use xlink:href="#DejaVuSans-6f" transform="translate(321.578125 0)"/>
      <use xlink:href="#DejaVuSans-70" transform="translate(382.759766 0)"/>
     </g>
    </g>
    <g id="line2d_19">
     <path d="M 303.317187 64.772812 
L 313.317187 64.772812 
L 323.317187 64.772812 
" style="fill: none; stroke: #2ca02c; stroke-width: 1.5; stroke-linecap: square"/>
    </g>
    <g id="text_19">
     <!-- Adadelta -->
     <g transform="translate(331.317187 68.272812) scale(0.1 -0.1)">
      <use xlink:href="#DejaVuSans-41"/>
      <use xlink:href="#DejaVuSans-64" transform="translate(66.658203 0)"/>
      <use xlink:href="#DejaVuSans-61" transform="translate(130.134766 0)"/>
      <use xlink:href="#DejaVuSans-64" transform="translate(191.414062 0)"/>
      <use xlink:href="#DejaVuSans-65" transform="translate(254.890625 0)"/>
      <use xlink:href="#DejaVuSans-6c" transform="translate(316.414062 0)"/>
      <use xlink:href="#DejaVuSans-74" transform="translate(344.197266 0)"/>
      <use xlink:href="#DejaVuSans-61" transform="translate(383.40625 0)"/>
     </g>
    </g>
   </g>
  </g>
 </g>
 <defs>
  <clipPath id="p02665fb25b">
   <rect x="50.14375" y="22.318125" width="334.8" height="221.76"/>
  </clipPath>
 </defs>
</svg>
