<?xml version="1.0" encoding="utf-8" standalone="no"?>
<!DOCTYPE svg PUBLIC "-//W3C//DTD SVG 1.1//EN"
  "http://www.w3.org/Graphics/SVG/1.1/DTD/svg11.dtd">
<svg xmlns:xlink="http://www.w3.org/1999/xlink" width="441.58125pt" height="337.074375pt" viewBox="0 0 441.58125 337.074375" xmlns="http://www.w3.org/2000/svg" version="1.1">
 <metadata>
  <rdf:RDF xmlns:dc="http://purl.org/dc/elements/1.1/" xmlns:cc="http://creativecommons.org/ns#" xmlns:rdf="http://www.w3.org/1999/02/22-rdf-syntax-ns#">
   <cc:Work>
    <dc:type rdf:resource="http://purl.org/dc/dcmitype/StillImage"/>
    <dc:date>2026-06-01T19:11:32.898213</dc:date>
    <dc:format>image/svg+xml</dc:format>
    <dc:creator>
     <cc:Agent>
      <dc:title>Matplotlib v3.10.9, https://matplotlib.org/</dc:title>
     </cc:Agent>
    </dc:creator>
   </cc:Work>
  </rdf:RDF>
 </metadata>
 <defs>
  <style type="text/css">*{stroke-linejoin: round; stroke-linecap: butt}</style>
 </defs>
 <g id="figure_1">
  <g id="patch_1">
   <path d="M 0 337.074375 
L 441.58125 337.074375 
L 441.58125 0 
L 0 0 
z
" style="fill: #ffffff"/>
  </g>
  <g id="axes_1">
   <g id="patch_2">
    <path d="M 43.78125 299.518125 
L 434.38125 299.518125 
L 434.38125 22.318125 
L 43.78125 22.318125 
z
" style="fill: #ffffff"/>
   </g>
   <g id="matplotlib.axis_1">
    <g id="xtick_1">
     <g id="line2d_1">
      <defs>
       <path id="m405fc66b8b" d="M 0 0 
L 0 3.5 
" style="stroke: #000000; stroke-width: 0.8"/>
      </defs>
      <g>
       <use xlink:href="#m405fc66b8b" x="52.4309" y="299.518125" style="stroke: #000000; stroke-width: 0.8"/>
      </g>
     </g>
     <g id="text_1">
      <!-- 0 -->
      <g transform="translate(49.24965 314.116563) scale(0.1 -0.1)">
       <defs>
        <path id="DejaVuSans-30" d="M 2034 4250 
Q 1547 4250 1301 3770 
Q 1056 3291 1056 2328 
Q 1056 1369 1301 889 
Q 1547 409 2034 409 
Q 2525 409 2770 889 
Q 3016 1369 3016 2328 
Q 3016 3291 2770 3770 
Q 2525 4250 2034 4250 
z
M 2034 4750 
Q 2819 4750 3233 4129 
Q 3647 3509 3647 2328 
Q 3647 1150 3233 529 
Q 2819 -91 2034 -91 
Q 1250 -91 836 529 
Q 422 1150 422 2328 
Q 422 3509 836 4129 
Q 1250 4750 2034 4750 
z
" transform="scale(0.015625)"/>
       </defs>
       <use xlink:href="#DejaVuSans-30"/>
      </g>
     </g>
    </g>
    <g id="xtick_2">
     <g id="line2d_2">
      <g>
       <use xlink:href="#m405fc66b8b" x="97.955376" y="299.518125" style="stroke: #000000; stroke-width: 0.8"/>
      </g>
     </g>
     <g id="text_2">
      <!-- 5 -->
      <g transform="translate(94.774126 314.116563) scale(0.1 -0.1)">
       <defs>
        <path id="DejaVuSans-35" d="M 691 4666 
L 3169 4666 
L 3169 4134 
L 1269 4134 
L 1269 2991 
Q 1406 3038 1543 3061 
Q 1681 3084 1819 3084 
Q 2600 3084 3056 2656 
Q 3513 2228 3513 1497 
Q 3513 744 3044 326 
Q 2575 -91 1722 -91 
Q 1428 -91 1123 -41 
Q 819 9 494 109 
L 494 744 
Q 775 591 1075 516 
Q 1375 441 1709 441 
Q 2250 441 2565 725 
Q 2881 1009 2881 1497 
Q 2881 1984 2565 2268 
Q 2250 2553 1709 2553 
Q 1456 2553 1204 2497 
Q 953 2441 691 2322 
L 691 4666 
z
" transform="scale(0.015625)"/>
       </defs>
       <use xlink:href="#DejaVuSans-35"/>
      </g>
     </g>
    </g>
    <g id="xtick_3">
     <g id="line2d_3">
      <g>
       <use xlink:href="#m405fc66b8b" x="143.479851" y="299.518125" style="stroke: #000000; stroke-width: 0.8"/>
      </g>
     </g>
     <g id="text_3">
      <!-- 10 -->
      <g transform="translate(137.117351 314.116563) scale(0.1 -0.1)">
       <defs>
        <path id="DejaVuSans-31" d="M 794 531 
L 1825 531 
L 1825 4091 
L 703 3866 
L 703 4441 
L 1819 4666 
L 2450 4666 
L 2450 531 
L 3481 531 
L 3481 0 
L 794 0 
L 794 531 
z
" transform="scale(0.015625)"/>
       </defs>
       <use xlink:href="#DejaVuSans-31"/>
       <use xlink:href="#DejaVuSans-30" transform="translate(63.623047 0)"/>
      </g>
     </g>
    </g>
    <g id="xtick_4">
     <g id="line2d_4">
      <g>
       <use xlink:href="#m405fc66b8b" x="189.004327" y="299.518125" style="stroke: #000000; stroke-width: 0.8"/>
      </g>
     </g>
     <g id="text_4">
      <!-- 15 -->
      <g transform="translate(182.641827 314.116563) scale(0.1 -0.1)">
       <use xlink:href="#DejaVuSans-31"/>
       <use xlink:href="#DejaVuSans-35" transform="translate(63.623047 0)"/>
      </g>
     </g>
    </g>
    <g id="xtick_5">
     <g id="line2d_5">
      <g>
       <use xlink:href="#m405fc66b8b" x="234.528802" y="299.518125" style="stroke: #000000; stroke-width: 0.8"/>
      </g>
     </g>
     <g id="text_5">
      <!-- 20 -->
      <g transform="translate(228.166302 314.116563) scale(0.1 -0.1)">
       <defs>
        <path id="DejaVuSans-32" d="M 1228 531 
L 3431 531 
L 3431 0 
L 469 0 
L 469 531 
Q 828 903 1448 1529 
Q 2069 2156 2228 2338 
Q 2531 2678 2651 2914 
Q 2772 3150 2772 3378 
Q 2772 3750 2511 3984 
Q 2250 4219 1831 4219 
Q 1534 4219 1204 4116 
Q 875 4013 500 3803 
L 500 4441 
Q 881 4594 1212 4672 
Q 1544 4750 1819 4750 
Q 2544 4750 2975 4387 
Q 3406 4025 3406 3419 
Q 3406 3131 3298 2873 
Q 3191 2616 2906 2266 
Q 2828 2175 2409 1742 
Q 1991 1309 1228 531 
z
" transform="scale(0.015625)"/>
       </defs>
       <use xlink:href="#DejaVuSans-32"/>
       <use xlink:href="#DejaVuSans-30" transform="translate(63.623047 0)"/>
      </g>
     </g>
    </g>
    <g id="xtick_6">
     <g id="line2d_6">
      <g>
       <use xlink:href="#m405fc66b8b" x="280.053278" y="299.518125" style="stroke: #000000; stroke-width: 0.8"/>
      </g>
     </g>
     <g id="text_6">
      <!-- 25 -->
      <g transform="translate(273.690778 314.116563) scale(0.1 -0.1)">
       <use xlink:href="#DejaVuSans-32"/>
       <use xlink:href="#DejaVuSans-35" transform="translate(63.623047 0)"/>
      </g>
     </g>
    </g>
    <g id="xtick_7">
     <g id="line2d_7">
      <g>
       <use xlink:href="#m405fc66b8b" x="325.577753" y="299.518125" style="stroke: #000000; stroke-width: 0.8"/>
      </g>
     </g>
     <g id="text_7">
      <!-- 30 -->
      <g transform="translate(319.215253 314.116563) scale(0.1 -0.1)">
       <defs>
        <path id="DejaVuSans-33" d="M 2597 2516 
Q 3050 2419 3304 2112 
Q 3559 1806 3559 1356 
Q 3559 666 3084 287 
Q 2609 -91 1734 -91 
Q 1441 -91 1130 -33 
Q 819 25 488 141 
L 488 750 
Q 750 597 1062 519 
Q 1375 441 1716 441 
Q 2309 441 2620 675 
Q 2931 909 2931 1356 
Q 2931 1769 2642 2001 
Q 2353 2234 1838 2234 
L 1294 2234 
L 1294 2753 
L 1863 2753 
Q 2328 2753 2575 2939 
Q 2822 3125 2822 3475 
Q 2822 3834 2567 4026 
Q 2313 4219 1838 4219 
Q 1578 4219 1281 4162 
Q 984 4106 628 3988 
L 628 4550 
Q 988 4650 1302 4700 
Q 1616 4750 1894 4750 
Q 2613 4750 3031 4423 
Q 3450 4097 3450 3541 
Q 3450 3153 3228 2886 
Q 3006 2619 2597 2516 
z
" transform="scale(0.015625)"/>
       </defs>
       <use xlink:href="#DejaVuSans-33"/>
       <use xlink:href="#DejaVuSans-30" transform="translate(63.623047 0)"/>
      </g>
     </g>
    </g>
    <g id="xtick_8">
     <g id="line2d_8">
      <g>
       <use xlink:href="#m405fc66b8b" x="371.102229" y="299.518125" style="stroke: #000000; stroke-width: 0.8"/>
      </g>
     </g>
     <g id="text_8">
      <!-- 35 -->
      <g transform="translate(364.739729 314.116563) scale(0.1 -0.1)">
       <use xlink:href="#DejaVuSans-33"/>
       <use xlink:href="#DejaVuSans-35" transform="translate(63.623047 0)"/>
      </g>
     </g>
    </g>
    <g id="xtick_9">
     <g id="line2d_9">
      <g>
       <use xlink:href="#m405fc66b8b" x="416.626705" y="299.518125" style="stroke: #000000; stroke-width: 0.8"/>
      </g>
     </g>
     <g id="text_9">
      <!-- 40 -->
      <g transform="translate(410.264205 314.116563) scale(0.1 -0.1)">
       <defs>
        <path id="DejaVuSans-34" d="M 2419 4116 
L 825 1625 
L 2419 1625 
L 2419 4116 
z
M 2253 4666 
L 3047 4666 
L 3047 1625 
L 3713 1625 
L 3713 1100 
L 3047 1100 
L 3047 0 
L 2419 0 
L 2419 1100 
L 313 1100 
L 313 1709 
L 2253 4666 
z
" transform="scale(0.015625)"/>
       </defs>
       <use xlink:href="#DejaVuSans-34"/>
       <use xlink:href="#DejaVuSans-30" transform="translate(63.623047 0)"/>
      </g>
     </g>
    </g>
    <g id="text_10">
     <!-- Step -->
     <g transform="translate(227.696094 327.794688) scale(0.1 -0.1)">
      <defs>
       <path id="DejaVuSans-53" d="M 3425 4513 
L 3425 3897 
Q 3066 4069 2747 4153 
Q 2428 4238 2131 4238 
Q 1616 4238 1336 4038 
Q 1056 3838 1056 3469 
Q 1056 3159 1242 3001 
Q 1428 2844 1947 2747 
L 2328 2669 
Q 3034 2534 3370 2195 
Q 3706 1856 3706 1288 
Q 3706 609 3251 259 
Q 2797 -91 1919 -91 
Q 1588 -91 1214 -16 
Q 841 59 441 206 
L 441 856 
Q 825 641 1194 531 
Q 1563 422 1919 422 
Q 2459 422 2753 634 
Q 3047 847 3047 1241 
Q 3047 1584 2836 1778 
Q 2625 1972 2144 2069 
L 1759 2144 
Q 1053 2284 737 2584 
Q 422 2884 422 3419 
Q 422 4038 858 4394 
Q 1294 4750 2059 4750 
Q 2388 4750 2728 4690 
Q 3069 4631 3425 4513 
z
" transform="scale(0.015625)"/>
       <path id="DejaVuSans-74" d="M 1172 4494 
L 1172 3500 
L 2356 3500 
L 2356 3053 
L 1172 3053 
L 1172 1153 
Q 1172 725 1289 603 
Q 1406 481 1766 481 
L 2356 481 
L 2356 0 
L 1766 0 
Q 1100 0 847 248 
Q 594 497 594 1153 
L 594 3053 
L 172 3053 
L 172 3500 
L 594 3500 
L 594 4494 
L 1172 4494 
z
" transform="scale(0.015625)"/>
       <path id="DejaVuSans-65" d="M 3597 1894 
L 3597 1613 
L 953 1613 
Q 991 1019 1311 708 
Q 1631 397 2203 397 
Q 2534 397 2845 478 
Q 3156 559 3463 722 
L 3463 178 
Q 3153 47 2828 -22 
Q 2503 -91 2169 -91 
Q 1331 -91 842 396 
Q 353 884 353 1716 
Q 353 2575 817 3079 
Q 1281 3584 2069 3584 
Q 2775 3584 3186 3129 
Q 3597 2675 3597 1894 
z
M 3022 2063 
Q 3016 2534 2758 2815 
Q 2500 3097 2075 3097 
Q 1594 3097 1305 2825 
Q 1016 2553 972 2059 
L 3022 2063 
z
" transform="scale(0.015625)"/>
       <path id="DejaVuSans-70" d="M 1159 525 
L 1159 -1331 
L 581 -1331 
L 581 3500 
L 1159 3500 
L 1159 2969 
Q 1341 3281 1617 3432 
Q 1894 3584 2278 3584 
Q 2916 3584 3314 3078 
Q 3713 2572 3713 1747 
Q 3713 922 3314 415 
Q 2916 -91 2278 -91 
Q 1894 -91 1617 61 
Q 1341 213 1159 525 
z
M 3116 1747 
Q 3116 2381 2855 2742 
Q 2594 3103 2138 3103 
Q 1681 3103 1420 2742 
Q 1159 2381 1159 1747 
Q 1159 1113 1420 752 
Q 1681 391 2138 391 
Q 2594 391 2855 752 
Q 3116 1113 3116 1747 
z
" transform="scale(0.015625)"/>
      </defs>
      <use xlink:href="#DejaVuSans-53"/>
      <use xlink:href="#DejaVuSans-74" transform="translate(63.476562 0)"/>
      <use xlink:href="#DejaVuSans-65" transform="translate(102.685547 0)"/>
      <use xlink:href="#DejaVuSans-70" transform="translate(164.208984 0)"/>
     </g>
    </g>
   </g>
   <g id="matplotlib.axis_2">
    <g id="ytick_1">
     <g id="line2d_10">
      <defs>
       <path id="ma62f05f688" d="M 0 0 
L -3.5 0 
" style="stroke: #000000; stroke-width: 0.8"/>
      </defs>
      <g>
       <use xlink:href="#ma62f05f688" x="43.78125" y="245.850829" style="stroke: #000000; stroke-width: 0.8"/>
      </g>
     </g>
     <g id="text_11">
      <!-- 0.1 -->
      <g transform="translate(20.878125 249.650048) scale(0.1 -0.1)">
       <defs>
        <path id="DejaVuSans-2e" d="M 684 794 
L 1344 794 
L 1344 0 
L 684 0 
L 684 794 
z
" transform="scale(0.015625)"/>
       </defs>
       <use xlink:href="#DejaVuSans-30"/>
       <use xlink:href="#DejaVuSans-2e" transform="translate(63.623047 0)"/>
       <use xlink:href="#DejaVuSans-31" transform="translate(95.410156 0)"/>
      </g>
     </g>
    </g>
    <g id="ytick_2">
     <g id="line2d_11">
      <g>
       <use xlink:href="#ma62f05f688" x="43.78125" y="185.58434" style="stroke: #000000; stroke-width: 0.8"/>
      </g>
     </g>
     <g id="text_12">
      <!-- 0.2 -->
      <g transform="translate(20.878125 189.383559) scale(0.1 -0.1)">
       <use xlink:href="#DejaVuSans-30"/>
       <use xlink:href="#DejaVuSans-2e" transform="translate(63.623047 0)"/>
       <use xlink:href="#DejaVuSans-32" transform="translate(95.410156 0)"/>
      </g>
     </g>
    </g>
    <g id="ytick_3">
     <g id="line2d_12">
      <g>
       <use xlink:href="#ma62f05f688" x="43.78125" y="125.317851" style="stroke: #000000; stroke-width: 0.8"/>
      </g>
     </g>
     <g id="text_13">
      <!-- 0.3 -->
      <g transform="translate(20.878125 129.11707) scale(0.1 -0.1)">
       <use xlink:href="#DejaVuSans-30"/>
       <use xlink:href="#DejaVuSans-2e" transform="translate(63.623047 0)"/>
       <use xlink:href="#DejaVuSans-33" transform="translate(95.410156 0)"/>
      </g>
     </g>
    </g>
    <g id="ytick_4">
     <g id="line2d_13">
      <g>
       <use xlink:href="#ma62f05f688" x="43.78125" y="65.051362" style="stroke: #000000; stroke-width: 0.8"/>
      </g>
     </g>
     <g id="text_14">
      <!-- 0.4 -->
      <g transform="translate(20.878125 68.850581) scale(0.1 -0.1)">
       <use xlink:href="#DejaVuSans-30"/>
       <use xlink:href="#DejaVuSans-2e" transform="translate(63.623047 0)"/>
       <use xlink:href="#DejaVuSans-34" transform="translate(95.410156 0)"/>
      </g>
     </g>
    </g>
    <g id="text_15">
     <!-- Effective learning rate -->
     <g transform="translate(14.798438 216.541563) rotate(-90) scale(0.1 -0.1)">
      <defs>
       <path id="DejaVuSans-45" d="M 628 4666 
L 3578 4666 
L 3578 4134 
L 1259 4134 
L 1259 2753 
L 3481 2753 
L 3481 2222 
L 1259 2222 
L 1259 531 
L 3634 531 
L 3634 0 
L 628 0 
L 628 4666 
z
" transform="scale(0.015625)"/>
       <path id="DejaVuSans-66" d="M 2375 4863 
L 2375 4384 
L 1825 4384 
Q 1516 4384 1395 4259 
Q 1275 4134 1275 3809 
L 1275 3500 
L 2222 3500 
L 2222 3053 
L 1275 3053 
L 1275 0 
L 697 0 
L 697 3053 
L 147 3053 
L 147 3500 
L 697 3500 
L 697 3744 
Q 697 4328 969 4595 
Q 1241 4863 1831 4863 
L 2375 4863 
z
" transform="scale(0.015625)"/>
       <path id="DejaVuSans-63" d="M 3122 3366 
L 3122 2828 
Q 2878 2963 2633 3030 
Q 2388 3097 2138 3097 
Q 1578 3097 1268 2742 
Q 959 2388 959 1747 
Q 959 1106 1268 751 
Q 1578 397 2138 397 
Q 2388 397 2633 464 
Q 2878 531 3122 666 
L 3122 134 
Q 2881 22 2623 -34 
Q 2366 -91 2075 -91 
Q 1284 -91 818 406 
Q 353 903 353 1747 
Q 353 2603 823 3093 
Q 1294 3584 2113 3584 
Q 2378 3584 2631 3529 
Q 2884 3475 3122 3366 
z
" transform="scale(0.015625)"/>
       <path id="DejaVuSans-69" d="M 603 3500 
L 1178 3500 
L 1178 0 
L 603 0 
L 603 3500 
z
M 603 4863 
L 1178 4863 
L 1178 4134 
L 603 4134 
L 603 4863 
z
" transform="scale(0.015625)"/>
       <path id="DejaVuSans-76" d="M 191 3500 
L 800 3500 
L 1894 563 
L 2988 3500 
L 3597 3500 
L 2284 0 
L 1503 0 
L 191 3500 
z
" transform="scale(0.015625)"/>
       <path id="DejaVuSans-20" transform="scale(0.015625)"/>
       <path id="DejaVuSans-6c" d="M 603 4863 
L 1178 4863 
L 1178 0 
L 603 0 
L 603 4863 
z
" transform="scale(0.015625)"/>
       <path id="DejaVuSans-61" d="M 2194 1759 
Q 1497 1759 1228 1600 
Q 959 1441 959 1056 
Q 959 750 1161 570 
Q 1363 391 1709 391 
Q 2188 391 2477 730 
Q 2766 1069 2766 1631 
L 2766 1759 
L 2194 1759 
z
M 3341 1997 
L 3341 0 
L 2766 0 
L 2766 531 
Q 2569 213 2275 61 
Q 1981 -91 1556 -91 
Q 1019 -91 701 211 
Q 384 513 384 1019 
Q 384 1609 779 1909 
Q 1175 2209 1959 2209 
L 2766 2209 
L 2766 2266 
Q 2766 2663 2505 2880 
Q 2244 3097 1772 3097 
Q 1472 3097 1187 3025 
Q 903 2953 641 2809 
L 641 3341 
Q 956 3463 1253 3523 
Q 1550 3584 1831 3584 
Q 2591 3584 2966 3190 
Q 3341 2797 3341 1997 
z
" transform="scale(0.015625)"/>
       <path id="DejaVuSans-72" d="M 2631 2963 
Q 2534 3019 2420 3045 
Q 2306 3072 2169 3072 
Q 1681 3072 1420 2755 
Q 1159 2438 1159 1844 
L 1159 0 
L 581 0 
L 581 3500 
L 1159 3500 
L 1159 2956 
Q 1341 3275 1631 3429 
Q 1922 3584 2338 3584 
Q 2397 3584 2469 3576 
Q 2541 3569 2628 3553 
L 2631 2963 
z
" transform="scale(0.015625)"/>
       <path id="DejaVuSans-6e" d="M 3513 2113 
L 3513 0 
L 2938 0 
L 2938 2094 
Q 2938 2591 2744 2837 
Q 2550 3084 2163 3084 
Q 1697 3084 1428 2787 
Q 1159 2491 1159 1978 
L 1159 0 
L 581 0 
L 581 3500 
L 1159 3500 
L 1159 2956 
Q 1366 3272 1645 3428 
Q 1925 3584 2291 3584 
Q 2894 3584 3203 3211 
Q 3513 2838 3513 2113 
z
" transform="scale(0.015625)"/>
       <path id="DejaVuSans-67" d="M 2906 1791 
Q 2906 2416 2648 2759 
Q 2391 3103 1925 3103 
Q 1463 3103 1205 2759 
Q 947 2416 947 1791 
Q 947 1169 1205 825 
Q 1463 481 1925 481 
Q 2391 481 2648 825 
Q 2906 1169 2906 1791 
z
M 3481 434 
Q 3481 -459 3084 -895 
Q 2688 -1331 1869 -1331 
Q 1566 -1331 1297 -1286 
Q 1028 -1241 775 -1147 
L 775 -588 
Q 1028 -725 1275 -790 
Q 1522 -856 1778 -856 
Q 2344 -856 2625 -561 
Q 2906 -266 2906 331 
L 2906 616 
Q 2728 306 2450 153 
Q 2172 0 1784 0 
Q 1141 0 747 490 
Q 353 981 353 1791 
Q 353 2603 747 3093 
Q 1141 3584 1784 3584 
Q 2172 3584 2450 3431 
Q 2728 3278 2906 2969 
L 2906 3500 
L 3481 3500 
L 3481 434 
z
" transform="scale(0.015625)"/>
      </defs>
      <use xlink:href="#DejaVuSans-45"/>
      <use xlink:href="#DejaVuSans-66" transform="translate(63.183594 0)"/>
      <use xlink:href="#DejaVuSans-66" transform="translate(98.388672 0)"/>
      <use xlink:href="#DejaVuSans-65" transform="translate(133.59375 0)"/>
      <use xlink:href="#DejaVuSans-63" transform="translate(195.117188 0)"/>
      <use xlink:href="#DejaVuSans-74" transform="translate(250.097656 0)"/>
      <use xlink:href="#DejaVuSans-69" transform="translate(289.306641 0)"/>
      <use xlink:href="#DejaVuSans-76" transform="translate(317.089844 0)"/>
      <use xlink:href="#DejaVuSans-65" transform="translate(376.269531 0)"/>
      <use xlink:href="#DejaVuSans-20" transform="translate(437.792969 0)"/>
      <use xlink:href="#DejaVuSans-6c" transform="translate(469.580078 0)"/>
      <use xlink:href="#DejaVuSans-65" transform="translate(497.363281 0)"/>
      <use xlink:href="#DejaVuSans-61" transform="translate(558.886719 0)"/>
      <use xlink:href="#DejaVuSans-72" transform="translate(620.166016 0)"/>
      <use xlink:href="#DejaVuSans-6e" transform="translate(659.529297 0)"/>
      <use xlink:href="#DejaVuSans-69" transform="translate(722.908203 0)"/>
      <use xlink:href="#DejaVuSans-6e" transform="translate(750.691406 0)"/>
      <use xlink:href="#DejaVuSans-67" transform="translate(814.070312 0)"/>
      <use xlink:href="#DejaVuSans-20" transform="translate(877.546875 0)"/>
      <use xlink:href="#DejaVuSans-72" transform="translate(909.333984 0)"/>
      <use xlink:href="#DejaVuSans-61" transform="translate(950.447266 0)"/>
      <use xlink:href="#DejaVuSans-74" transform="translate(1011.726562 0)"/>
      <use xlink:href="#DejaVuSans-65" transform="translate(1050.935547 0)"/>
     </g>
    </g>
   </g>
   <g id="line2d_14">
    <path d="M 61.535795 34.918125 
L 70.640691 105.536954 
L 79.745586 136.273312 
L 88.850481 154.325025 
L 97.955376 166.470199 
L 107.060271 175.309343 
L 116.165166 182.081306 
L 125.270061 187.460759 
L 134.374956 191.850426 
L 143.479851 195.507446 
L 152.584747 198.604626 
L 161.689642 201.262934 
L 170.794537 203.569956 
L 179.899432 205.590754 
L 189.004327 207.374873 
L 198.109222 208.960768 
L 207.214117 210.378801 
L 216.319012 211.653283 
L 225.423907 212.803978 
L 234.528802 213.84707 
L 243.633698 214.796057 
L 252.738593 215.662199 
L 261.843488 216.455007 
L 270.948383 217.182609 
L 280.053278 217.851946 
L 289.158173 218.469007 
L 298.263068 219.038994 
L 307.367963 219.566467 
L 316.472858 220.055378 
L 325.577753 220.50923 
L 334.682649 220.931156 
L 343.787544 221.323879 
L 352.892439 221.689875 
L 361.997334 222.031328 
L 371.102229 222.350204 
L 380.207124 222.648291 
L 389.312019 222.927195 
L 398.416914 223.188346 
L 407.521809 223.43308 
L 416.626705 223.662583 
" clip-path="url(#p0d9a87f167)" style="fill: none; stroke: #1f77b4; stroke-width: 1.5; stroke-linecap: square"/>
    <defs>
     <path id="me4f81ca44a" d="M 0 1.5 
C 0.397805 1.5 0.77937 1.341951 1.06066 1.06066 
C 1.341951 0.77937 1.5 0.397805 1.5 0 
C 1.5 -0.397805 1.341951 -0.77937 1.06066 -1.06066 
C 0.77937 -1.341951 0.397805 -1.5 0 -1.5 
C -0.397805 -1.5 -0.77937 -1.341951 -1.06066 -1.06066 
C -1.341951 -0.77937 -1.5 -0.397805 -1.5 0 
C -1.5 0.397805 -1.341951 0.77937 -1.06066 1.06066 
C -0.77937 1.341951 -0.397805 1.5 0 1.5 
z
" style="stroke: #1f77b4"/>
    </defs>
    <g clip-path="url(#p0d9a87f167)">
     <use xlink:href="#me4f81ca44a" x="61.535795" y="34.918125" style="fill: #1f77b4; stroke: #1f77b4"/>
     <use xlink:href="#me4f81ca44a" x="70.640691" y="105.536954" style="fill: #1f77b4; stroke: #1f77b4"/>
     <use xlink:href="#me4f81ca44a" x="79.745586" y="136.273312" style="fill: #1f77b4; stroke: #1f77b4"/>
     <use xlink:href="#me4f81ca44a" x="88.850481" y="154.325025" style="fill: #1f77b4; stroke: #1f77b4"/>
     <use xlink:href="#me4f81ca44a" x="97.955376" y="166.470199" style="fill: #1f77b4; stroke: #1f77b4"/>
     <use xlink:href="#me4f81ca44a" x="107.060271" y="175.309343" style="fill: #1f77b4; stroke: #1f77b4"/>
     <use xlink:href="#me4f81ca44a" x="116.165166" y="182.081306" style="fill: #1f77b4; stroke: #1f77b4"/>
     <use xlink:href="#me4f81ca44a" x="125.270061" y="187.460759" style="fill: #1f77b4; stroke: #1f77b4"/>
     <use xlink:href="#me4f81ca44a" x="134.374956" y="191.850426" style="fill: #1f77b4; stroke: #1f77b4"/>
     <use xlink:href="#me4f81ca44a" x="143.479851" y="195.507446" style="fill: #1f77b4; stroke: #1f77b4"/>
     <use xlink:href="#me4f81ca44a" x="152.584747" y="198.604626" style="fill: #1f77b4; stroke: #1f77b4"/>
     <use xlink:href="#me4f81ca44a" x="161.689642" y="201.262934" style="fill: #1f77b4; stroke: #1f77b4"/>
     <use xlink:href="#me4f81ca44a" x="170.794537" y="203.569956" style="fill: #1f77b4; stroke: #1f77b4"/>
     <use xlink:href="#me4f81ca44a" x="179.899432" y="205.590754" style="fill: #1f77b4; stroke: #1f77b4"/>
     <use xlink:href="#me4f81ca44a" x="189.004327" y="207.374873" style="fill: #1f77b4; stroke: #1f77b4"/>
     <use xlink:href="#me4f81ca44a" x="198.109222" y="208.960768" style="fill: #1f77b4; stroke: #1f77b4"/>
     <use xlink:href="#me4f81ca44a" x="207.214117" y="210.378801" style="fill: #1f77b4; stroke: #1f77b4"/>
     <use xlink:href="#me4f81ca44a" x="216.319012" y="211.653283" style="fill: #1f77b4; stroke: #1f77b4"/>
     <use xlink:href="#me4f81ca44a" x="225.423907" y="212.803978" style="fill: #1f77b4; stroke: #1f77b4"/>
     <use xlink:href="#me4f81ca44a" x="234.528802" y="213.84707" style="fill: #1f77b4; stroke: #1f77b4"/>
     <use xlink:href="#me4f81ca44a" x="243.633698" y="214.796057" style="fill: #1f77b4; stroke: #1f77b4"/>
     <use xlink:href="#me4f81ca44a" x="252.738593" y="215.662199" style="fill: #1f77b4; stroke: #1f77b4"/>
     <use xlink:href="#me4f81ca44a" x="261.843488" y="216.455007" style="fill: #1f77b4; stroke: #1f77b4"/>
     <use xlink:href="#me4f81ca44a" x="270.948383" y="217.182609" style="fill: #1f77b4; stroke: #1f77b4"/>
     <use xlink:href="#me4f81ca44a" x="280.053278" y="217.851946" style="fill: #1f77b4; stroke: #1f77b4"/>
     <use xlink:href="#me4f81ca44a" x="289.158173" y="218.469007" style="fill: #1f77b4; stroke: #1f77b4"/>
     <use xlink:href="#me4f81ca44a" x="298.263068" y="219.038994" style="fill: #1f77b4; stroke: #1f77b4"/>
     <use xlink:href="#me4f81ca44a" x="307.367963" y="219.566467" style="fill: #1f77b4; stroke: #1f77b4"/>
     <use xlink:href="#me4f81ca44a" x="316.472858" y="220.055378" style="fill: #1f77b4; stroke: #1f77b4"/>
     <use xlink:href="#me4f81ca44a" x="325.577753" y="220.50923" style="fill: #1f77b4; stroke: #1f77b4"/>
     <use xlink:href="#me4f81ca44a" x="334.682649" y="220.931156" style="fill: #1f77b4; stroke: #1f77b4"/>
     <use xlink:href="#me4f81ca44a" x="343.787544" y="221.323879" style="fill: #1f77b4; stroke: #1f77b4"/>
     <use xlink:href="#me4f81ca44a" x="352.892439" y="221.689875" style="fill: #1f77b4; stroke: #1f77b4"/>
     <use xlink:href="#me4f81ca44a" x="361.997334" y="222.031328" style="fill: #1f77b4; stroke: #1f77b4"/>
     <use xlink:href="#me4f81ca44a" x="371.102229" y="222.350204" style="fill: #1f77b4; stroke: #1f77b4"/>
     <use xlink:href="#me4f81ca44a" x="380.207124" y="222.648291" style="fill: #1f77b4; stroke: #1f77b4"/>
     <use xlink:href="#me4f81ca44a" x="389.312019" y="222.927195" style="fill: #1f77b4; stroke: #1f77b4"/>
     <use xlink:href="#me4f81ca44a" x="398.416914" y="223.188346" style="fill: #1f77b4; stroke: #1f77b4"/>
     <use xlink:href="#me4f81ca44a" x="407.521809" y="223.43308" style="fill: #1f77b4; stroke: #1f77b4"/>
     <use xlink:href="#me4f81ca44a" x="416.626705" y="223.662583" style="fill: #1f77b4; stroke: #1f77b4"/>
    </g>
   </g>
   <g id="line2d_15">
    <path d="M 61.535795 272.217419 
L 70.640691 279.322329 
L 79.745586 282.185996 
L 88.850481 283.734544 
L 97.955376 284.686225 
L 107.060271 285.313719 
L 116.165166 285.745778 
L 125.270061 286.051862 
L 134.374956 286.272982 
L 143.479851 286.434936 
L 152.584747 286.554746 
L 161.689642 286.644021 
L 170.794537 286.710902 
L 179.899432 286.761206 
L 189.004327 286.799153 
L 198.109222 286.827845 
L 207.214117 286.849578 
L 216.319012 286.866057 
L 225.423907 286.878564 
L 234.528802 286.888065 
L 243.633698 286.895286 
L 252.738593 286.900779 
L 261.843488 286.904955 
L 270.948383 286.908132 
L 280.053278 286.91055 
L 289.158173 286.912391 
L 298.263068 286.913792 
L 307.367963 286.914856 
L 316.472858 286.915669 
L 325.577753 286.916284 
L 334.682649 286.916755 
L 343.787544 286.917112 
L 352.892439 286.917386 
L 361.997334 286.917593 
L 371.102229 286.917752 
L 380.207124 286.917874 
L 389.312019 286.917963 
L 398.416914 286.918033 
L 407.521809 286.918087 
L 416.626705 286.918125 
" clip-path="url(#p0d9a87f167)" style="fill: none; stroke: #ff7f0e; stroke-width: 1.5; stroke-linecap: square"/>
    <defs>
     <path id="m02e1da2af0" d="M 0 1.5 
C 0.397805 1.5 0.77937 1.341951 1.06066 1.06066 
C 1.341951 0.77937 1.5 0.397805 1.5 0 
C 1.5 -0.397805 1.341951 -0.77937 1.06066 -1.06066 
C 0.77937 -1.341951 0.397805 -1.5 0 -1.5 
C -0.397805 -1.5 -0.77937 -1.341951 -1.06066 -1.06066 
C -1.341951 -0.77937 -1.5 -0.397805 -1.5 0 
C -1.5 0.397805 -1.341951 0.77937 -1.06066 1.06066 
C -0.77937 1.341951 -0.397805 1.5 0 1.5 
z
" style="stroke: #ff7f0e"/>
    </defs>
    <g clip-path="url(#p0d9a87f167)">
     <use xlink:href="#m02e1da2af0" x="61.535795" y="272.217419" style="fill: #ff7f0e; stroke: #ff7f0e"/>
     <use xlink:href="#m02e1da2af0" x="70.640691" y="279.322329" style="fill: #ff7f0e; stroke: #ff7f0e"/>
     <use xlink:href="#m02e1da2af0" x="79.745586" y="282.185996" style="fill: #ff7f0e; stroke: #ff7f0e"/>
     <use xlink:href="#m02e1da2af0" x="88.850481" y="283.734544" style="fill: #ff7f0e; stroke: #ff7f0e"/>
     <use xlink:href="#m02e1da2af0" x="97.955376" y="284.686225" style="fill: #ff7f0e; stroke: #ff7f0e"/>
     <use xlink:href="#m02e1da2af0" x="107.060271" y="285.313719" style="fill: #ff7f0e; stroke: #ff7f0e"/>
     <use xlink:href="#m02e1da2af0" x="116.165166" y="285.745778" style="fill: #ff7f0e; stroke: #ff7f0e"/>
     <use xlink:href="#m02e1da2af0" x="125.270061" y="286.051862" style="fill: #ff7f0e; stroke: #ff7f0e"/>
     <use xlink:href="#m02e1da2af0" x="134.374956" y="286.272982" style="fill: #ff7f0e; stroke: #ff7f0e"/>
     <use xlink:href="#m02e1da2af0" x="143.479851" y="286.434936" style="fill: #ff7f0e; stroke: #ff7f0e"/>
     <use xlink:href="#m02e1da2af0" x="152.584747" y="286.554746" style="fill: #ff7f0e; stroke: #ff7f0e"/>
     <use xlink:href="#m02e1da2af0" x="161.689642" y="286.644021" style="fill: #ff7f0e; stroke: #ff7f0e"/>
     <use xlink:href="#m02e1da2af0" x="170.794537" y="286.710902" style="fill: #ff7f0e; stroke: #ff7f0e"/>
     <use xlink:href="#m02e1da2af0" x="179.899432" y="286.761206" style="fill: #ff7f0e; stroke: #ff7f0e"/>
     <use xlink:href="#m02e1da2af0" x="189.004327" y="286.799153" style="fill: #ff7f0e; stroke: #ff7f0e"/>
     <use xlink:href="#m02e1da2af0" x="198.109222" y="286.827845" style="fill: #ff7f0e; stroke: #ff7f0e"/>
     <use xlink:href="#m02e1da2af0" x="207.214117" y="286.849578" style="fill: #ff7f0e; stroke: #ff7f0e"/>
     <use xlink:href="#m02e1da2af0" x="216.319012" y="286.866057" style="fill: #ff7f0e; stroke: #ff7f0e"/>
     <use xlink:href="#m02e1da2af0" x="225.423907" y="286.878564" style="fill: #ff7f0e; stroke: #ff7f0e"/>
     <use xlink:href="#m02e1da2af0" x="234.528802" y="286.888065" style="fill: #ff7f0e; stroke: #ff7f0e"/>
     <use xlink:href="#m02e1da2af0" x="243.633698" y="286.895286" style="fill: #ff7f0e; stroke: #ff7f0e"/>
     <use xlink:href="#m02e1da2af0" x="252.738593" y="286.900779" style="fill: #ff7f0e; stroke: #ff7f0e"/>
     <use xlink:href="#m02e1da2af0" x="261.843488" y="286.904955" style="fill: #ff7f0e; stroke: #ff7f0e"/>
     <use xlink:href="#m02e1da2af0" x="270.948383" y="286.908132" style="fill: #ff7f0e; stroke: #ff7f0e"/>
     <use xlink:href="#m02e1da2af0" x="280.053278" y="286.91055" style="fill: #ff7f0e; stroke: #ff7f0e"/>
     <use xlink:href="#m02e1da2af0" x="289.158173" y="286.912391" style="fill: #ff7f0e; stroke: #ff7f0e"/>
     <use xlink:href="#m02e1da2af0" x="298.263068" y="286.913792" style="fill: #ff7f0e; stroke: #ff7f0e"/>
     <use xlink:href="#m02e1da2af0" x="307.367963" y="286.914856" style="fill: #ff7f0e; stroke: #ff7f0e"/>
     <use xlink:href="#m02e1da2af0" x="316.472858" y="286.915669" style="fill: #ff7f0e; stroke: #ff7f0e"/>
     <use xlink:href="#m02e1da2af0" x="325.577753" y="286.916284" style="fill: #ff7f0e; stroke: #ff7f0e"/>
     <use xlink:href="#m02e1da2af0" x="334.682649" y="286.916755" style="fill: #ff7f0e; stroke: #ff7f0e"/>
     <use xlink:href="#m02e1da2af0" x="343.787544" y="286.917112" style="fill: #ff7f0e; stroke: #ff7f0e"/>
     <use xlink:href="#m02e1da2af0" x="352.892439" y="286.917386" style="fill: #ff7f0e; stroke: #ff7f0e"/>
     <use xlink:href="#m02e1da2af0" x="361.997334" y="286.917593" style="fill: #ff7f0e; stroke: #ff7f0e"/>
     <use xlink:href="#m02e1da2af0" x="371.102229" y="286.917752" style="fill: #ff7f0e; stroke: #ff7f0e"/>
     <use xlink:href="#m02e1da2af0" x="380.207124" y="286.917874" style="fill: #ff7f0e; stroke: #ff7f0e"/>
     <use xlink:href="#m02e1da2af0" x="389.312019" y="286.917963" style="fill: #ff7f0e; stroke: #ff7f0e"/>
     <use xlink:href="#m02e1da2af0" x="398.416914" y="286.918033" style="fill: #ff7f0e; stroke: #ff7f0e"/>
     <use xlink:href="#m02e1da2af0" x="407.521809" y="286.918087" style="fill: #ff7f0e; stroke: #ff7f0e"/>
     <use xlink:href="#m02e1da2af0" x="416.626705" y="286.918125" style="fill: #ff7f0e; stroke: #ff7f0e"/>
    </g>
   </g>
   <g id="patch_3">
    <path d="M 43.78125 299.518125 
L 43.78125 22.318125 
" style="fill: none; stroke: #000000; stroke-width: 0.8; stroke-linejoin: miter; stroke-linecap: square"/>
   </g>
   <g id="patch_4">
    <path d="M 434.38125 299.518125 
L 434.38125 22.318125 
" style="fill: none; stroke: #000000; stroke-width: 0.8; stroke-linejoin: miter; stroke-linecap: square"/>
   </g>
   <g id="patch_5">
    <path d="M 43.78125 299.518125 
L 434.38125 299.518125 
" style="fill: none; stroke: #000000; stroke-width: 0.8; stroke-linejoin: miter; stroke-linecap: square"/>
   </g>
   <g id="patch_6">
    <path d="M 43.78125 22.318125 
L 434.38125 22.318125 
" style="fill: none; stroke: #000000; stroke-width: 0.8; stroke-linejoin: miter; stroke-linecap: square"/>
   </g>
   <g id="text_16">
    <!-- Effective Learning Rates in Adagrad -->
    <g transform="translate(131.53875 16.318125) scale(0.12 -0.12)">
     <defs>
      <path id="DejaVuSans-4c" d="M 628 4666 
L 1259 4666 
L 1259 531 
L 3531 531 
L 3531 0 
L 628 0 
L 628 4666 
z
" transform="scale(0.015625)"/>
      <path id="DejaVuSans-52" d="M 2841 2188 
Q 3044 2119 3236 1894 
Q 3428 1669 3622 1275 
L 4263 0 
L 3584 0 
L 2988 1197 
Q 2756 1666 2539 1819 
Q 2322 1972 1947 1972 
L 1259 1972 
L 1259 0 
L 628 0 
L 628 4666 
L 2053 4666 
Q 2853 4666 3247 4331 
Q 3641 3997 3641 3322 
Q 3641 2881 3436 2590 
Q 3231 2300 2841 2188 
z
M 1259 4147 
L 1259 2491 
L 2053 2491 
Q 2509 2491 2742 2702 
Q 2975 2913 2975 3322 
Q 2975 3731 2742 3939 
Q 2509 4147 2053 4147 
L 1259 4147 
z
" transform="scale(0.015625)"/>
      <path id="DejaVuSans-73" d="M 2834 3397 
L 2834 2853 
Q 2591 2978 2328 3040 
Q 2066 3103 1784 3103 
Q 1356 3103 1142 2972 
Q 928 2841 928 2578 
Q 928 2378 1081 2264 
Q 1234 2150 1697 2047 
L 1894 2003 
Q 2506 1872 2764 1633 
Q 3022 1394 3022 966 
Q 3022 478 2636 193 
Q 2250 -91 1575 -91 
Q 1294 -91 989 -36 
Q 684 19 347 128 
L 347 722 
Q 666 556 975 473 
Q 1284 391 1588 391 
Q 1994 391 2212 530 
Q 2431 669 2431 922 
Q 2431 1156 2273 1281 
Q 2116 1406 1581 1522 
L 1381 1569 
Q 847 1681 609 1914 
Q 372 2147 372 2553 
Q 372 3047 722 3315 
Q 1072 3584 1716 3584 
Q 2034 3584 2315 3537 
Q 2597 3491 2834 3397 
z
" transform="scale(0.015625)"/>
      <path id="DejaVuSans-41" d="M 2188 4044 
L 1331 1722 
L 3047 1722 
L 2188 4044 
z
M 1831 4666 
L 2547 4666 
L 4325 0 
L 3669 0 
L 3244 1197 
L 1141 1197 
L 716 0 
L 50 0 
L 1831 4666 
z
" transform="scale(0.015625)"/>
      <path id="DejaVuSans-64" d="M 2906 2969 
L 2906 4863 
L 3481 4863 
L 3481 0 
L 2906 0 
L 2906 525 
Q 2725 213 2448 61 
Q 2172 -91 1784 -91 
Q 1150 -91 751 415 
Q 353 922 353 1747 
Q 353 2572 751 3078 
Q 1150 3584 1784 3584 
Q 2172 3584 2448 3432 
Q 2725 3281 2906 2969 
z
M 947 1747 
Q 947 1113 1208 752 
Q 1469 391 1925 391 
Q 2381 391 2643 752 
Q 2906 1113 2906 1747 
Q 2906 2381 2643 2742 
Q 2381 3103 1925 3103 
Q 1469 3103 1208 2742 
Q 947 2381 947 1747 
z
" transform="scale(0.015625)"/>
     </defs>
     <use xlink:href="#DejaVuSans-45"/>
     <use xlink:href="#DejaVuSans-66" transform="translate(63.183594 0)"/>
     <use xlink:href="#DejaVuSans-66" transform="translate(98.388672 0)"/>
     <use xlink:href="#DejaVuSans-65" transform="translate(133.59375 0)"/>
     <use xlink:href="#DejaVuSans-63" transform="translate(195.117188 0)"/>
     <use xlink:href="#DejaVuSans-74" transform="translate(250.097656 0)"/>
     <use xlink:href="#DejaVuSans-69" transform="translate(289.306641 0)"/>
     <use xlink:href="#DejaVuSans-76" transform="translate(317.089844 0)"/>
     <use xlink:href="#DejaVuSans-65" transform="translate(376.269531 0)"/>
     <use xlink:href="#DejaVuSans-20" transform="translate(437.792969 0)"/>
     <use xlink:href="#DejaVuSans-4c" transform="translate(469.580078 0)"/>
     <use xlink:href="#DejaVuSans-65" transform="translate(523.542969 0)"/>
     <use xlink:href="#DejaVuSans-61" transform="translate(585.066406 0)"/>
     <use xlink:href="#DejaVuSans-72" transform="translate(646.345703 0)"/>
     <use xlink:href="#DejaVuSans-6e" transform="translate(685.708984 0)"/>
     <use xlink:href="#DejaVuSans-69" transform="translate(749.087891 0)"/>
     <use xlink:href="#DejaVuSans-6e" transform="translate(776.871094 0)"/>
     <use xlink:href="#DejaVuSans-67" transform="translate(840.25 0)"/>
     <use xlink:href="#DejaVuSans-20" transform="translate(903.726562 0)"/>
     <use xlink:href="#DejaVuSans-52" transform="translate(935.513672 0)"/>
     <use xlink:href="#DejaVuSans-61" transform="translate(1002.746094 0)"/>
     <use xlink:href="#DejaVuSans-74" transform="translate(1064.025391 0)"/>
     <use xlink:href="#DejaVuSans-65" transform="translate(1103.234375 0)"/>
     <use xlink:href="#DejaVuSans-73" transform="translate(1164.757812 0)"/>
     <use xlink:href="#DejaVuSans-20" transform="translate(1216.857422 0)"/>
     <use xlink:href="#DejaVuSans-69" transform="translate(1248.644531 0)"/>
     <use xlink:href="#DejaVuSans-6e" transform="translate(1276.427734 0)"/>
     <use xlink:href="#DejaVuSans-20" transform="translate(1339.806641 0)"/>
     <use xlink:href="#DejaVuSans-41" transform="translate(1371.59375 0)"/>
     <use xlink:href="#DejaVuSans-64" transform="translate(1438.251953 0)"/>
     <use xlink:href="#DejaVuSans-61" transform="translate(1501.728516 0)"/>
     <use xlink:href="#DejaVuSans-67" transform="translate(1563.007812 0)"/>
     <use xlink:href="#DejaVuSans-72" transform="translate(1626.484375 0)"/>
     <use xlink:href="#DejaVuSans-61" transform="translate(1667.597656 0)"/>
     <use xlink:href="#DejaVuSans-64" transform="translate(1728.876953 0)"/>
    </g>
   </g>
   <g id="legend_1">
    <g id="patch_7">
     <path d="M 384.48125 59.674375 
L 427.38125 59.674375 
Q 429.38125 59.674375 429.38125 57.674375 
L 429.38125 29.318125 
Q 429.38125 27.318125 427.38125 27.318125 
L 384.48125 27.318125 
Q 382.48125 27.318125 382.48125 29.318125 
L 382.48125 57.674375 
Q 382.48125 59.674375 384.48125 59.674375 
z
" style="fill: #ffffff; opacity: 0.8; stroke: #cccccc; stroke-linejoin: miter"/>
    </g>
    <g id="line2d_16">
     <path d="M 386.48125 35.416562 
L 396.48125 35.416562 
L 406.48125 35.416562 
" style="fill: none; stroke: #1f77b4; stroke-width: 1.5; stroke-linecap: square"/>
     <g>
      <use xlink:href="#me4f81ca44a" x="396.48125" y="35.416562" style="fill: #1f77b4; stroke: #1f77b4"/>
     </g>
    </g>
    <g id="text_17">
     <!-- $\theta_1$ -->
     <g transform="translate(414.48125 38.916562) scale(0.1 -0.1)">
      <defs>
       <path id="DejaVuSans-Oblique-3b8" d="M 2913 2219 
L 925 2219 
Q 791 1284 928 888 
Q 1100 400 1566 400 
Q 2034 400 2391 891 
Q 2703 1322 2913 2219 
z
M 3009 2750 
Q 3094 3638 2984 3950 
Q 2813 4444 2353 4444 
Q 1875 4444 1525 3956 
Q 1250 3563 1034 2750 
L 3009 2750 
z
M 2444 4913 
Q 3194 4913 3494 4250 
Q 3794 3591 3566 2422 
Q 3341 1256 2781 594 
Q 2225 -72 1475 -72 
Q 722 -72 425 594 
Q 128 1256 353 2422 
Q 581 3591 1134 4250 
Q 1691 4913 2444 4913 
z
" transform="scale(0.015625)"/>
      </defs>
      <use xlink:href="#DejaVuSans-Oblique-3b8" transform="translate(0 0.234375)"/>
      <use xlink:href="#DejaVuSans-31" transform="translate(61.181641 -16.171875) scale(0.7)"/>
     </g>
    </g>
    <g id="line2d_17">
     <path d="M 386.48125 50.094688 
L 396.48125 50.094688 
L 406.48125 50.094688 
" style="fill: none; stroke: #ff7f0e; stroke-width: 1.5; stroke-linecap: square"/>
     <g>
      <use xlink:href="#m02e1da2af0" x="396.48125" y="50.094688" style="fill: #ff7f0e; stroke: #ff7f0e"/>
     </g>
    </g>
    <g id="text_18">
     <!-- $\theta_2$ -->
     <g transform="translate(414.48125 53.594688) scale(0.1 -0.1)">
      <use xlink:href="#DejaVuSans-Oblique-3b8" transform="translate(0 0.234375)"/>
      <use xlink:href="#DejaVuSans-32" transform="translate(61.181641 -16.171875) scale(0.7)"/>
     </g>
    </g>
   </g>
  </g>
 </g>
 <defs>
  <clipPath id="p0d9a87f167">
   <rect x="43.78125" y="22.318125" width="390.6" height="277.2"/>
  </clipPath>
 </defs>
</svg>
