<?xml version="1.0" encoding="utf-8" standalone="no"?>
<!DOCTYPE svg PUBLIC "-//W3C//DTD SVG 1.1//EN"
  "http://www.w3.org/Graphics/SVG/1.1/DTD/svg11.dtd">
<svg xmlns:xlink="http://www.w3.org/1999/xlink" width="603.682812pt" height="226.194375pt" viewBox="0 0 603.682812 226.194375" xmlns="http://www.w3.org/2000/svg" version="1.1">
 <metadata>
  <rdf:RDF xmlns:dc="http://purl.org/dc/elements/1.1/" xmlns:cc="http://creativecommons.org/ns#" xmlns:rdf="http://www.w3.org/1999/02/22-rdf-syntax-ns#">
   <cc:Work>
    <dc:type rdf:resource="http://purl.org/dc/dcmitype/StillImage"/>
    <dc:date>2026-04-20T18:03:51.065777</dc:date>
    <dc:format>image/svg+xml</dc:format>
    <dc:creator>
     <cc:Agent>
      <dc:title>Matplotlib v3.10.8, https://matplotlib.org/</dc:title>
     </cc:Agent>
    </dc:creator>
   </cc:Work>
  </rdf:RDF>
 </metadata>
 <defs>
  <style type="text/css">*{stroke-linejoin: round; stroke-linecap: butt}</style>
 </defs>
 <g id="figure_1">
  <g id="patch_1">
   <path d="M 0 226.194375 
L 603.682812 226.194375 
L 603.682812 0 
L 0 0 
z
" style="fill: #ffffff"/>
  </g>
  <g id="axes_1">
   <g id="patch_2">
    <path d="M 38.482813 188.638125 
L 292.119176 188.638125 
L 292.119176 22.318125 
L 38.482813 22.318125 
z
" style="fill: #ffffff"/>
   </g>
   <g id="matplotlib.axis_1">
    <g id="xtick_1">
     <g id="line2d_1">
      <defs>
       <path id="m76ec12daa6" d="M 0 0 
L 0 3.5 
" style="stroke: #000000; stroke-width: 0.8"/>
      </defs>
      <g>
       <use xlink:href="#m76ec12daa6" x="50.011738" y="188.638125" style="stroke: #000000; stroke-width: 0.8"/>
      </g>
     </g>
     <g id="text_1">
      <!-- 0 -->
      <g transform="translate(46.830488 203.236563) scale(0.1 -0.1)">
       <defs>
        <path id="DejaVuSans-30" d="M 2034 4250 
Q 1547 4250 1301 3770 
Q 1056 3291 1056 2328 
Q 1056 1369 1301 889 
Q 1547 409 2034 409 
Q 2525 409 2770 889 
Q 3016 1369 3016 2328 
Q 3016 3291 2770 3770 
Q 2525 4250 2034 4250 
z
M 2034 4750 
Q 2819 4750 3233 4129 
Q 3647 3509 3647 2328 
Q 3647 1150 3233 529 
Q 2819 -91 2034 -91 
Q 1250 -91 836 529 
Q 422 1150 422 2328 
Q 422 3509 836 4129 
Q 1250 4750 2034 4750 
z
" transform="scale(0.015625)"/>
       </defs>
       <use xlink:href="#DejaVuSans-30"/>
      </g>
     </g>
    </g>
    <g id="xtick_2">
     <g id="line2d_2">
      <g>
       <use xlink:href="#m76ec12daa6" x="87.201821" y="188.638125" style="stroke: #000000; stroke-width: 0.8"/>
      </g>
     </g>
     <g id="text_2">
      <!-- 5 -->
      <g transform="translate(84.020571 203.236563) scale(0.1 -0.1)">
       <defs>
        <path id="DejaVuSans-35" d="M 691 4666 
L 3169 4666 
L 3169 4134 
L 1269 4134 
L 1269 2991 
Q 1406 3038 1543 3061 
Q 1681 3084 1819 3084 
Q 2600 3084 3056 2656 
Q 3513 2228 3513 1497 
Q 3513 744 3044 326 
Q 2575 -91 1722 -91 
Q 1428 -91 1123 -41 
Q 819 9 494 109 
L 494 744 
Q 775 591 1075 516 
Q 1375 441 1709 441 
Q 2250 441 2565 725 
Q 2881 1009 2881 1497 
Q 2881 1984 2565 2268 
Q 2250 2553 1709 2553 
Q 1456 2553 1204 2497 
Q 953 2441 691 2322 
L 691 4666 
z
" transform="scale(0.015625)"/>
       </defs>
       <use xlink:href="#DejaVuSans-35"/>
      </g>
     </g>
    </g>
    <g id="xtick_3">
     <g id="line2d_3">
      <g>
       <use xlink:href="#m76ec12daa6" x="124.391903" y="188.638125" style="stroke: #000000; stroke-width: 0.8"/>
      </g>
     </g>
     <g id="text_3">
      <!-- 10 -->
      <g transform="translate(118.029403 203.236563) scale(0.1 -0.1)">
       <defs>
        <path id="DejaVuSans-31" d="M 794 531 
L 1825 531 
L 1825 4091 
L 703 3866 
L 703 4441 
L 1819 4666 
L 2450 4666 
L 2450 531 
L 3481 531 
L 3481 0 
L 794 0 
L 794 531 
z
" transform="scale(0.015625)"/>
       </defs>
       <use xlink:href="#DejaVuSans-31"/>
       <use xlink:href="#DejaVuSans-30" transform="translate(63.623047 0)"/>
      </g>
     </g>
    </g>
    <g id="xtick_4">
     <g id="line2d_4">
      <g>
       <use xlink:href="#m76ec12daa6" x="161.581986" y="188.638125" style="stroke: #000000; stroke-width: 0.8"/>
      </g>
     </g>
     <g id="text_4">
      <!-- 15 -->
      <g transform="translate(155.219486 203.236563) scale(0.1 -0.1)">
       <use xlink:href="#DejaVuSans-31"/>
       <use xlink:href="#DejaVuSans-35" transform="translate(63.623047 0)"/>
      </g>
     </g>
    </g>
    <g id="xtick_5">
     <g id="line2d_5">
      <g>
       <use xlink:href="#m76ec12daa6" x="198.772069" y="188.638125" style="stroke: #000000; stroke-width: 0.8"/>
      </g>
     </g>
     <g id="text_5">
      <!-- 20 -->
      <g transform="translate(192.409569 203.236563) scale(0.1 -0.1)">
       <defs>
        <path id="DejaVuSans-32" d="M 1228 531 
L 3431 531 
L 3431 0 
L 469 0 
L 469 531 
Q 828 903 1448 1529 
Q 2069 2156 2228 2338 
Q 2531 2678 2651 2914 
Q 2772 3150 2772 3378 
Q 2772 3750 2511 3984 
Q 2250 4219 1831 4219 
Q 1534 4219 1204 4116 
Q 875 4013 500 3803 
L 500 4441 
Q 881 4594 1212 4672 
Q 1544 4750 1819 4750 
Q 2544 4750 2975 4387 
Q 3406 4025 3406 3419 
Q 3406 3131 3298 2873 
Q 3191 2616 2906 2266 
Q 2828 2175 2409 1742 
Q 1991 1309 1228 531 
z
" transform="scale(0.015625)"/>
       </defs>
       <use xlink:href="#DejaVuSans-32"/>
       <use xlink:href="#DejaVuSans-30" transform="translate(63.623047 0)"/>
      </g>
     </g>
    </g>
    <g id="xtick_6">
     <g id="line2d_6">
      <g>
       <use xlink:href="#m76ec12daa6" x="235.962151" y="188.638125" style="stroke: #000000; stroke-width: 0.8"/>
      </g>
     </g>
     <g id="text_6">
      <!-- 25 -->
      <g transform="translate(229.599651 203.236563) scale(0.1 -0.1)">
       <use xlink:href="#DejaVuSans-32"/>
       <use xlink:href="#DejaVuSans-35" transform="translate(63.623047 0)"/>
      </g>
     </g>
    </g>
    <g id="xtick_7">
     <g id="line2d_7">
      <g>
       <use xlink:href="#m76ec12daa6" x="273.152234" y="188.638125" style="stroke: #000000; stroke-width: 0.8"/>
      </g>
     </g>
     <g id="text_7">
      <!-- 30 -->
      <g transform="translate(266.789734 203.236563) scale(0.1 -0.1)">
       <defs>
        <path id="DejaVuSans-33" d="M 2597 2516 
Q 3050 2419 3304 2112 
Q 3559 1806 3559 1356 
Q 3559 666 3084 287 
Q 2609 -91 1734 -91 
Q 1441 -91 1130 -33 
Q 819 25 488 141 
L 488 750 
Q 750 597 1062 519 
Q 1375 441 1716 441 
Q 2309 441 2620 675 
Q 2931 909 2931 1356 
Q 2931 1769 2642 2001 
Q 2353 2234 1838 2234 
L 1294 2234 
L 1294 2753 
L 1863 2753 
Q 2328 2753 2575 2939 
Q 2822 3125 2822 3475 
Q 2822 3834 2567 4026 
Q 2313 4219 1838 4219 
Q 1578 4219 1281 4162 
Q 984 4106 628 3988 
L 628 4550 
Q 988 4650 1302 4700 
Q 1616 4750 1894 4750 
Q 2613 4750 3031 4423 
Q 3450 4097 3450 3541 
Q 3450 3153 3228 2886 
Q 3006 2619 2597 2516 
z
" transform="scale(0.015625)"/>
       </defs>
       <use xlink:href="#DejaVuSans-33"/>
       <use xlink:href="#DejaVuSans-30" transform="translate(63.623047 0)"/>
      </g>
     </g>
    </g>
    <g id="text_8">
     <!-- Position -->
     <g transform="translate(145.836932 216.914688) scale(0.1 -0.1)">
      <defs>
       <path id="DejaVuSans-50" d="M 1259 4147 
L 1259 2394 
L 2053 2394 
Q 2494 2394 2734 2622 
Q 2975 2850 2975 3272 
Q 2975 3691 2734 3919 
Q 2494 4147 2053 4147 
L 1259 4147 
z
M 628 4666 
L 2053 4666 
Q 2838 4666 3239 4311 
Q 3641 3956 3641 3272 
Q 3641 2581 3239 2228 
Q 2838 1875 2053 1875 
L 1259 1875 
L 1259 0 
L 628 0 
L 628 4666 
z
" transform="scale(0.015625)"/>
       <path id="DejaVuSans-6f" d="M 1959 3097 
Q 1497 3097 1228 2736 
Q 959 2375 959 1747 
Q 959 1119 1226 758 
Q 1494 397 1959 397 
Q 2419 397 2687 759 
Q 2956 1122 2956 1747 
Q 2956 2369 2687 2733 
Q 2419 3097 1959 3097 
z
M 1959 3584 
Q 2709 3584 3137 3096 
Q 3566 2609 3566 1747 
Q 3566 888 3137 398 
Q 2709 -91 1959 -91 
Q 1206 -91 779 398 
Q 353 888 353 1747 
Q 353 2609 779 3096 
Q 1206 3584 1959 3584 
z
" transform="scale(0.015625)"/>
       <path id="DejaVuSans-73" d="M 2834 3397 
L 2834 2853 
Q 2591 2978 2328 3040 
Q 2066 3103 1784 3103 
Q 1356 3103 1142 2972 
Q 928 2841 928 2578 
Q 928 2378 1081 2264 
Q 1234 2150 1697 2047 
L 1894 2003 
Q 2506 1872 2764 1633 
Q 3022 1394 3022 966 
Q 3022 478 2636 193 
Q 2250 -91 1575 -91 
Q 1294 -91 989 -36 
Q 684 19 347 128 
L 347 722 
Q 666 556 975 473 
Q 1284 391 1588 391 
Q 1994 391 2212 530 
Q 2431 669 2431 922 
Q 2431 1156 2273 1281 
Q 2116 1406 1581 1522 
L 1381 1569 
Q 847 1681 609 1914 
Q 372 2147 372 2553 
Q 372 3047 722 3315 
Q 1072 3584 1716 3584 
Q 2034 3584 2315 3537 
Q 2597 3491 2834 3397 
z
" transform="scale(0.015625)"/>
       <path id="DejaVuSans-69" d="M 603 3500 
L 1178 3500 
L 1178 0 
L 603 0 
L 603 3500 
z
M 603 4863 
L 1178 4863 
L 1178 4134 
L 603 4134 
L 603 4863 
z
" transform="scale(0.015625)"/>
       <path id="DejaVuSans-74" d="M 1172 4494 
L 1172 3500 
L 2356 3500 
L 2356 3053 
L 1172 3053 
L 1172 1153 
Q 1172 725 1289 603 
Q 1406 481 1766 481 
L 2356 481 
L 2356 0 
L 1766 0 
Q 1100 0 847 248 
Q 594 497 594 1153 
L 594 3053 
L 172 3053 
L 172 3500 
L 594 3500 
L 594 4494 
L 1172 4494 
z
" transform="scale(0.015625)"/>
       <path id="DejaVuSans-6e" d="M 3513 2113 
L 3513 0 
L 2938 0 
L 2938 2094 
Q 2938 2591 2744 2837 
Q 2550 3084 2163 3084 
Q 1697 3084 1428 2787 
Q 1159 2491 1159 1978 
L 1159 0 
L 581 0 
L 581 3500 
L 1159 3500 
L 1159 2956 
Q 1366 3272 1645 3428 
Q 1925 3584 2291 3584 
Q 2894 3584 3203 3211 
Q 3513 2838 3513 2113 
z
" transform="scale(0.015625)"/>
      </defs>
      <use xlink:href="#DejaVuSans-50"/>
      <use xlink:href="#DejaVuSans-6f" transform="translate(56.677734 0)"/>
      <use xlink:href="#DejaVuSans-73" transform="translate(117.859375 0)"/>
      <use xlink:href="#DejaVuSans-69" transform="translate(169.958984 0)"/>
      <use xlink:href="#DejaVuSans-74" transform="translate(197.742188 0)"/>
      <use xlink:href="#DejaVuSans-69" transform="translate(236.951172 0)"/>
      <use xlink:href="#DejaVuSans-6f" transform="translate(264.734375 0)"/>
      <use xlink:href="#DejaVuSans-6e" transform="translate(325.916016 0)"/>
     </g>
    </g>
   </g>
   <g id="matplotlib.axis_2">
    <g id="ytick_1">
     <g id="line2d_8">
      <defs>
       <path id="mbb3529dc7d" d="M 0 0 
L -3.5 0 
" style="stroke: #000000; stroke-width: 0.8"/>
      </defs>
      <g>
       <use xlink:href="#mbb3529dc7d" x="38.482813" y="181.078867" style="stroke: #000000; stroke-width: 0.8"/>
      </g>
     </g>
     <g id="text_9">
      <!-- −1.0 -->
      <g transform="translate(7.2 184.878086) scale(0.1 -0.1)">
       <defs>
        <path id="DejaVuSans-2212" d="M 678 2272 
L 4684 2272 
L 4684 1741 
L 678 1741 
L 678 2272 
z
" transform="scale(0.015625)"/>
        <path id="DejaVuSans-2e" d="M 684 794 
L 1344 794 
L 1344 0 
L 684 0 
L 684 794 
z
" transform="scale(0.015625)"/>
       </defs>
       <use xlink:href="#DejaVuSans-2212"/>
       <use xlink:href="#DejaVuSans-31" transform="translate(83.789062 0)"/>
       <use xlink:href="#DejaVuSans-2e" transform="translate(147.412109 0)"/>
       <use xlink:href="#DejaVuSans-30" transform="translate(179.199219 0)"/>
      </g>
     </g>
    </g>
    <g id="ytick_2">
     <g id="line2d_9">
      <g>
       <use xlink:href="#mbb3529dc7d" x="38.482813" y="143.100323" style="stroke: #000000; stroke-width: 0.8"/>
      </g>
     </g>
     <g id="text_10">
      <!-- −0.5 -->
      <g transform="translate(7.2 146.899542) scale(0.1 -0.1)">
       <use xlink:href="#DejaVuSans-2212"/>
       <use xlink:href="#DejaVuSans-30" transform="translate(83.789062 0)"/>
       <use xlink:href="#DejaVuSans-2e" transform="translate(147.412109 0)"/>
       <use xlink:href="#DejaVuSans-35" transform="translate(179.199219 0)"/>
      </g>
     </g>
    </g>
    <g id="ytick_3">
     <g id="line2d_10">
      <g>
       <use xlink:href="#mbb3529dc7d" x="38.482813" y="105.121778" style="stroke: #000000; stroke-width: 0.8"/>
      </g>
     </g>
     <g id="text_11">
      <!-- 0.0 -->
      <g transform="translate(15.579688 108.920997) scale(0.1 -0.1)">
       <use xlink:href="#DejaVuSans-30"/>
       <use xlink:href="#DejaVuSans-2e" transform="translate(63.623047 0)"/>
       <use xlink:href="#DejaVuSans-30" transform="translate(95.410156 0)"/>
      </g>
     </g>
    </g>
    <g id="ytick_4">
     <g id="line2d_11">
      <g>
       <use xlink:href="#mbb3529dc7d" x="38.482813" y="67.143234" style="stroke: #000000; stroke-width: 0.8"/>
      </g>
     </g>
     <g id="text_12">
      <!-- 0.5 -->
      <g transform="translate(15.579688 70.942452) scale(0.1 -0.1)">
       <use xlink:href="#DejaVuSans-30"/>
       <use xlink:href="#DejaVuSans-2e" transform="translate(63.623047 0)"/>
       <use xlink:href="#DejaVuSans-35" transform="translate(95.410156 0)"/>
      </g>
     </g>
    </g>
    <g id="ytick_5">
     <g id="line2d_12">
      <g>
       <use xlink:href="#mbb3529dc7d" x="38.482813" y="29.164689" style="stroke: #000000; stroke-width: 0.8"/>
      </g>
     </g>
     <g id="text_13">
      <!-- 1.0 -->
      <g transform="translate(15.579688 32.963908) scale(0.1 -0.1)">
       <use xlink:href="#DejaVuSans-31"/>
       <use xlink:href="#DejaVuSans-2e" transform="translate(63.623047 0)"/>
       <use xlink:href="#DejaVuSans-30" transform="translate(95.410156 0)"/>
      </g>
     </g>
    </g>
   </g>
   <g id="line2d_13">
    <path d="M 50.011738 105.121778 
L 57.449755 41.206094 
L 64.887771 36.054194 
L 72.325788 94.402714 
L 79.763804 162.606293 
L 87.201821 177.958876 
L 94.639837 126.345365 
L 102.077854 55.218989 
L 109.51587 29.973006 
L 116.953887 73.818457 
L 124.391903 146.44404 
L 131.82992 181.078125 
L 139.267936 145.878296 
L 146.705953 73.207114 
L 154.14397 29.878125 
L 161.581986 55.727805 
L 169.020003 126.990076 
L 176.458019 178.146732 
L 183.896036 162.164582 
L 191.334052 93.737542 
L 198.772069 35.777113 
L 206.210085 41.571853 
L 213.648102 105.794098 
L 221.086118 169.398215 
L 228.524135 173.906876 
L 235.962151 115.174832 
L 243.400168 47.200057 
L 250.838184 32.478244 
L 258.276201 84.544563 
L 265.714217 155.529476 
L 273.152234 180.169785 
L 280.590251 135.811302 
" clip-path="url(#pe15d79d4ed)" style="fill: none; stroke: #1f77b4; stroke-width: 1.5; stroke-linecap: square"/>
   </g>
   <g id="patch_3">
    <path d="M 38.482813 188.638125 
L 38.482813 22.318125 
" style="fill: none; stroke: #000000; stroke-width: 0.8; stroke-linejoin: miter; stroke-linecap: square"/>
   </g>
   <g id="patch_4">
    <path d="M 292.119176 188.638125 
L 292.119176 22.318125 
" style="fill: none; stroke: #000000; stroke-width: 0.8; stroke-linejoin: miter; stroke-linecap: square"/>
   </g>
   <g id="patch_5">
    <path d="M 38.482813 188.638125 
L 292.119176 188.638125 
" style="fill: none; stroke: #000000; stroke-width: 0.8; stroke-linejoin: miter; stroke-linecap: square"/>
   </g>
   <g id="patch_6">
    <path d="M 38.482813 22.318125 
L 292.119176 22.318125 
" style="fill: none; stroke: #000000; stroke-width: 0.8; stroke-linejoin: miter; stroke-linecap: square"/>
   </g>
   <g id="text_14">
    <!-- First 64 Positions of PE -->
    <g transform="translate(97.736307 16.318125) scale(0.12 -0.12)">
     <defs>
      <path id="DejaVuSans-46" d="M 628 4666 
L 3309 4666 
L 3309 4134 
L 1259 4134 
L 1259 2759 
L 3109 2759 
L 3109 2228 
L 1259 2228 
L 1259 0 
L 628 0 
L 628 4666 
z
" transform="scale(0.015625)"/>
      <path id="DejaVuSans-72" d="M 2631 2963 
Q 2534 3019 2420 3045 
Q 2306 3072 2169 3072 
Q 1681 3072 1420 2755 
Q 1159 2438 1159 1844 
L 1159 0 
L 581 0 
L 581 3500 
L 1159 3500 
L 1159 2956 
Q 1341 3275 1631 3429 
Q 1922 3584 2338 3584 
Q 2397 3584 2469 3576 
Q 2541 3569 2628 3553 
L 2631 2963 
z
" transform="scale(0.015625)"/>
      <path id="DejaVuSans-20" transform="scale(0.015625)"/>
      <path id="DejaVuSans-36" d="M 2113 2584 
Q 1688 2584 1439 2293 
Q 1191 2003 1191 1497 
Q 1191 994 1439 701 
Q 1688 409 2113 409 
Q 2538 409 2786 701 
Q 3034 994 3034 1497 
Q 3034 2003 2786 2293 
Q 2538 2584 2113 2584 
z
M 3366 4563 
L 3366 3988 
Q 3128 4100 2886 4159 
Q 2644 4219 2406 4219 
Q 1781 4219 1451 3797 
Q 1122 3375 1075 2522 
Q 1259 2794 1537 2939 
Q 1816 3084 2150 3084 
Q 2853 3084 3261 2657 
Q 3669 2231 3669 1497 
Q 3669 778 3244 343 
Q 2819 -91 2113 -91 
Q 1303 -91 875 529 
Q 447 1150 447 2328 
Q 447 3434 972 4092 
Q 1497 4750 2381 4750 
Q 2619 4750 2861 4703 
Q 3103 4656 3366 4563 
z
" transform="scale(0.015625)"/>
      <path id="DejaVuSans-34" d="M 2419 4116 
L 825 1625 
L 2419 1625 
L 2419 4116 
z
M 2253 4666 
L 3047 4666 
L 3047 1625 
L 3713 1625 
L 3713 1100 
L 3047 1100 
L 3047 0 
L 2419 0 
L 2419 1100 
L 313 1100 
L 313 1709 
L 2253 4666 
z
" transform="scale(0.015625)"/>
      <path id="DejaVuSans-66" d="M 2375 4863 
L 2375 4384 
L 1825 4384 
Q 1516 4384 1395 4259 
Q 1275 4134 1275 3809 
L 1275 3500 
L 2222 3500 
L 2222 3053 
L 1275 3053 
L 1275 0 
L 697 0 
L 697 3053 
L 147 3053 
L 147 3500 
L 697 3500 
L 697 3744 
Q 697 4328 969 4595 
Q 1241 4863 1831 4863 
L 2375 4863 
z
" transform="scale(0.015625)"/>
      <path id="DejaVuSans-45" d="M 628 4666 
L 3578 4666 
L 3578 4134 
L 1259 4134 
L 1259 2753 
L 3481 2753 
L 3481 2222 
L 1259 2222 
L 1259 531 
L 3634 531 
L 3634 0 
L 628 0 
L 628 4666 
z
" transform="scale(0.015625)"/>
     </defs>
     <use xlink:href="#DejaVuSans-46"/>
     <use xlink:href="#DejaVuSans-69" transform="translate(50.269531 0)"/>
     <use xlink:href="#DejaVuSans-72" transform="translate(78.052734 0)"/>
     <use xlink:href="#DejaVuSans-73" transform="translate(119.166016 0)"/>
     <use xlink:href="#DejaVuSans-74" transform="translate(171.265625 0)"/>
     <use xlink:href="#DejaVuSans-20" transform="translate(210.474609 0)"/>
     <use xlink:href="#DejaVuSans-36" transform="translate(242.261719 0)"/>
     <use xlink:href="#DejaVuSans-34" transform="translate(305.884766 0)"/>
     <use xlink:href="#DejaVuSans-20" transform="translate(369.507812 0)"/>
     <use xlink:href="#DejaVuSans-50" transform="translate(401.294922 0)"/>
     <use xlink:href="#DejaVuSans-6f" transform="translate(457.972656 0)"/>
     <use xlink:href="#DejaVuSans-73" transform="translate(519.154297 0)"/>
     <use xlink:href="#DejaVuSans-69" transform="translate(571.253906 0)"/>
     <use xlink:href="#DejaVuSans-74" transform="translate(599.037109 0)"/>
     <use xlink:href="#DejaVuSans-69" transform="translate(638.246094 0)"/>
     <use xlink:href="#DejaVuSans-6f" transform="translate(666.029297 0)"/>
     <use xlink:href="#DejaVuSans-6e" transform="translate(727.210938 0)"/>
     <use xlink:href="#DejaVuSans-73" transform="translate(790.589844 0)"/>
     <use xlink:href="#DejaVuSans-20" transform="translate(842.689453 0)"/>
     <use xlink:href="#DejaVuSans-6f" transform="translate(874.476562 0)"/>
     <use xlink:href="#DejaVuSans-66" transform="translate(935.658203 0)"/>
     <use xlink:href="#DejaVuSans-20" transform="translate(970.863281 0)"/>
     <use xlink:href="#DejaVuSans-50" transform="translate(1002.650391 0)"/>
     <use xlink:href="#DejaVuSans-45" transform="translate(1062.953125 0)"/>
    </g>
   </g>
  </g>
  <g id="axes_2">
   <g id="patch_7">
    <path d="M 342.846449 188.638125 
L 596.482812 188.638125 
L 596.482812 22.318125 
L 342.846449 22.318125 
z
" style="fill: #ffffff"/>
   </g>
   <g id="matplotlib.axis_3">
    <g id="xtick_8">
     <g id="line2d_14">
      <g>
       <use xlink:href="#m76ec12daa6" x="354.375374" y="188.638125" style="stroke: #000000; stroke-width: 0.8"/>
      </g>
     </g>
     <g id="text_15">
      <!-- 0 -->
      <g transform="translate(351.194124 203.236563) scale(0.1 -0.1)">
       <use xlink:href="#DejaVuSans-30"/>
      </g>
     </g>
    </g>
    <g id="xtick_9">
     <g id="line2d_15">
      <g>
       <use xlink:href="#m76ec12daa6" x="399.586848" y="188.638125" style="stroke: #000000; stroke-width: 0.8"/>
      </g>
     </g>
     <g id="text_16">
      <!-- 50 -->
      <g transform="translate(393.224348 203.236563) scale(0.1 -0.1)">
       <use xlink:href="#DejaVuSans-35"/>
       <use xlink:href="#DejaVuSans-30" transform="translate(63.623047 0)"/>
      </g>
     </g>
    </g>
    <g id="xtick_10">
     <g id="line2d_16">
      <g>
       <use xlink:href="#m76ec12daa6" x="444.798321" y="188.638125" style="stroke: #000000; stroke-width: 0.8"/>
      </g>
     </g>
     <g id="text_17">
      <!-- 100 -->
      <g transform="translate(435.254571 203.236563) scale(0.1 -0.1)">
       <use xlink:href="#DejaVuSans-31"/>
       <use xlink:href="#DejaVuSans-30" transform="translate(63.623047 0)"/>
       <use xlink:href="#DejaVuSans-30" transform="translate(127.246094 0)"/>
      </g>
     </g>
    </g>
    <g id="xtick_11">
     <g id="line2d_17">
      <g>
       <use xlink:href="#m76ec12daa6" x="490.009794" y="188.638125" style="stroke: #000000; stroke-width: 0.8"/>
      </g>
     </g>
     <g id="text_18">
      <!-- 150 -->
      <g transform="translate(480.466044 203.236563) scale(0.1 -0.1)">
       <use xlink:href="#DejaVuSans-31"/>
       <use xlink:href="#DejaVuSans-35" transform="translate(63.623047 0)"/>
       <use xlink:href="#DejaVuSans-30" transform="translate(127.246094 0)"/>
      </g>
     </g>
    </g>
    <g id="xtick_12">
     <g id="line2d_18">
      <g>
       <use xlink:href="#m76ec12daa6" x="535.221267" y="188.638125" style="stroke: #000000; stroke-width: 0.8"/>
      </g>
     </g>
     <g id="text_19">
      <!-- 200 -->
      <g transform="translate(525.677517 203.236563) scale(0.1 -0.1)">
       <use xlink:href="#DejaVuSans-32"/>
       <use xlink:href="#DejaVuSans-30" transform="translate(63.623047 0)"/>
       <use xlink:href="#DejaVuSans-30" transform="translate(127.246094 0)"/>
      </g>
     </g>
    </g>
    <g id="xtick_13">
     <g id="line2d_19">
      <g>
       <use xlink:href="#m76ec12daa6" x="580.43274" y="188.638125" style="stroke: #000000; stroke-width: 0.8"/>
      </g>
     </g>
     <g id="text_20">
      <!-- 250 -->
      <g transform="translate(570.88899 203.236563) scale(0.1 -0.1)">
       <use xlink:href="#DejaVuSans-32"/>
       <use xlink:href="#DejaVuSans-35" transform="translate(63.623047 0)"/>
       <use xlink:href="#DejaVuSans-30" transform="translate(127.246094 0)"/>
      </g>
     </g>
    </g>
    <g id="text_21">
     <!-- Position -->
     <g transform="translate(450.200568 216.914688) scale(0.1 -0.1)">
      <use xlink:href="#DejaVuSans-50"/>
      <use xlink:href="#DejaVuSans-6f" transform="translate(56.677734 0)"/>
      <use xlink:href="#DejaVuSans-73" transform="translate(117.859375 0)"/>
      <use xlink:href="#DejaVuSans-69" transform="translate(169.958984 0)"/>
      <use xlink:href="#DejaVuSans-74" transform="translate(197.742188 0)"/>
      <use xlink:href="#DejaVuSans-69" transform="translate(236.951172 0)"/>
      <use xlink:href="#DejaVuSans-6f" transform="translate(264.734375 0)"/>
      <use xlink:href="#DejaVuSans-6e" transform="translate(325.916016 0)"/>
     </g>
    </g>
   </g>
   <g id="matplotlib.axis_4">
    <g id="ytick_6">
     <g id="line2d_20">
      <g>
       <use xlink:href="#mbb3529dc7d" x="342.846449" y="181.078864" style="stroke: #000000; stroke-width: 0.8"/>
      </g>
     </g>
     <g id="text_22">
      <!-- −1.0 -->
      <g transform="translate(311.563636 184.878083) scale(0.1 -0.1)">
       <use xlink:href="#DejaVuSans-2212"/>
       <use xlink:href="#DejaVuSans-31" transform="translate(83.789062 0)"/>
       <use xlink:href="#DejaVuSans-2e" transform="translate(147.412109 0)"/>
       <use xlink:href="#DejaVuSans-30" transform="translate(179.199219 0)"/>
      </g>
     </g>
    </g>
    <g id="ytick_7">
     <g id="line2d_21">
      <g>
       <use xlink:href="#mbb3529dc7d" x="342.846449" y="143.277013" style="stroke: #000000; stroke-width: 0.8"/>
      </g>
     </g>
     <g id="text_23">
      <!-- −0.5 -->
      <g transform="translate(311.563636 147.076232) scale(0.1 -0.1)">
       <use xlink:href="#DejaVuSans-2212"/>
       <use xlink:href="#DejaVuSans-30" transform="translate(83.789062 0)"/>
       <use xlink:href="#DejaVuSans-2e" transform="translate(147.412109 0)"/>
       <use xlink:href="#DejaVuSans-35" transform="translate(179.199219 0)"/>
      </g>
     </g>
    </g>
    <g id="ytick_8">
     <g id="line2d_22">
      <g>
       <use xlink:href="#mbb3529dc7d" x="342.846449" y="105.475162" style="stroke: #000000; stroke-width: 0.8"/>
      </g>
     </g>
     <g id="text_24">
      <!-- 0.0 -->
      <g transform="translate(319.943324 109.274381) scale(0.1 -0.1)">
       <use xlink:href="#DejaVuSans-30"/>
       <use xlink:href="#DejaVuSans-2e" transform="translate(63.623047 0)"/>
       <use xlink:href="#DejaVuSans-30" transform="translate(95.410156 0)"/>
      </g>
     </g>
    </g>
    <g id="ytick_9">
     <g id="line2d_23">
      <g>
       <use xlink:href="#mbb3529dc7d" x="342.846449" y="67.673311" style="stroke: #000000; stroke-width: 0.8"/>
      </g>
     </g>
     <g id="text_25">
      <!-- 0.5 -->
      <g transform="translate(319.943324 71.47253) scale(0.1 -0.1)">
       <use xlink:href="#DejaVuSans-30"/>
       <use xlink:href="#DejaVuSans-2e" transform="translate(63.623047 0)"/>
       <use xlink:href="#DejaVuSans-35" transform="translate(95.410156 0)"/>
      </g>
     </g>
    </g>
    <g id="ytick_10">
     <g id="line2d_24">
      <g>
       <use xlink:href="#mbb3529dc7d" x="342.846449" y="29.87146" style="stroke: #000000; stroke-width: 0.8"/>
      </g>
     </g>
     <g id="text_26">
      <!-- 1.0 -->
      <g transform="translate(319.943324 33.670679) scale(0.1 -0.1)">
       <use xlink:href="#DejaVuSans-31"/>
       <use xlink:href="#DejaVuSans-2e" transform="translate(63.623047 0)"/>
       <use xlink:href="#DejaVuSans-30" transform="translate(95.410156 0)"/>
      </g>
     </g>
    </g>
   </g>
   <g id="line2d_25">
    <path d="M 354.375374 105.475162 
L 355.279604 41.856843 
L 356.183833 36.728912 
L 357.088063 94.805968 
L 357.992292 162.692233 
L 358.896522 177.973389 
L 359.800751 126.600007 
L 360.704981 55.804543 
L 361.60921 30.676016 
L 362.51344 74.317478 
L 363.417669 146.605173 
L 364.321899 181.078125 
L 365.226128 146.042062 
L 366.130357 73.708979 
L 367.034587 30.581577 
L 367.938816 56.310992 
L 368.843046 127.241718 
L 369.747275 178.16037 
L 370.651505 162.252577 
L 371.555734 94.143891 
L 372.459964 36.45312 
L 373.364193 42.2209 
L 375.172652 169.452555 
L 376.076882 173.94024 
L 376.981111 115.481445 
L 377.88534 47.82292 
L 378.78957 33.169599 
L 379.693799 84.993681 
L 380.598029 155.64834 
L 381.502258 180.174011 
L 382.406488 136.021904 
L 383.310717 63.785262 
L 384.214947 29.878125 
L 385.119176 65.47455 
L 386.023406 137.847356 
L 386.927635 180.457315 
L 387.831865 154.129026 
L 388.736094 83.068601 
L 389.640323 32.608665 
L 390.544553 49.141851 
L 391.448782 117.467623 
L 392.353012 174.767584 
L 393.257241 168.360409 
L 395.0657 41.143707 
L 395.96993 37.296624 
L 396.874159 96.132576 
L 397.778389 163.558057 
L 398.682618 177.582392 
L 399.586848 125.311672 
L 400.491077 54.803354 
L 401.395306 30.882465 
L 402.299536 75.541754 
L 403.203765 147.721685 
L 404.107995 181.060352 
L 405.012224 144.906349 
L 405.916454 72.499491 
L 406.820683 30.410314 
L 407.724913 57.335412 
L 408.629142 128.519973 
L 409.533372 178.517244 
L 410.437601 161.359958 
L 411.34183 92.822452 
L 412.24606 35.917786 
L 413.150289 42.963855 
L 414.958748 170.155637 
L 415.862978 173.36182 
L 416.767207 114.153319 
L 417.671437 46.966162 
L 418.575666 33.571911 
L 419.479896 86.285176 
L 420.384125 156.641626 
L 421.288355 179.955868 
L 422.192584 134.79289 
L 423.096813 62.67533 
L 424.001043 29.907736 
L 424.905272 66.616486 
L 425.809502 139.051723 
L 426.713731 180.616825 
L 427.617961 153.097027 
L 428.52219 81.793906 
L 429.42642 32.263223 
L 430.330649 50.043261 
L 431.234879 118.787131 
L 432.139108 175.29204 
L 433.043338 167.607631 
L 434.851796 40.450732 
L 435.756026 37.885705 
L 436.660255 97.462114 
L 437.564485 164.405684 
L 438.468714 177.168801 
L 439.372944 124.01712 
L 440.277173 53.818049 
L 441.181403 31.112288 
L 442.085632 76.775412 
L 442.989862 148.824956 
L 443.894091 181.018898 
L 444.798321 143.75828 
L 445.70255 71.300338 
L 446.606779 30.262574 
L 447.511009 58.374915 
L 448.415238 129.791006 
L 449.319468 178.851222 
L 450.223697 160.449828 
L 451.127927 91.504978 
L 452.032156 35.404253 
L 452.936386 43.726398 
L 454.744845 170.83845 
L 455.649074 172.762122 
L 457.457533 46.127741 
L 458.361762 33.99675 
L 459.265992 87.582685 
L 460.170221 157.618878 
L 461.074451 179.714383 
L 461.97868 133.554688 
L 462.88291 61.578808 
L 463.787139 29.961032 
L 464.691369 67.770601 
L 465.595598 140.245568 
L 466.499828 180.752786 
L 467.404057 152.050102 
L 468.308286 80.526633 
L 469.212516 31.940727 
L 470.116745 50.962044 
L 471.020975 120.102467 
L 471.925204 175.794613 
L 472.829434 166.835381 
L 474.637893 39.778135 
L 475.542122 38.495966 
L 477.350581 165.23484 
L 478.254811 176.732746 
L 479.15904 122.716757 
L 480.063269 52.848926 
L 480.967499 31.365413 
L 481.871728 78.018062 
L 482.775958 149.914642 
L 483.680187 180.953768 
L 484.584417 142.598213 
L 485.488646 70.111897 
L 486.392876 30.138406 
L 487.297105 59.42918 
L 488.201335 131.054419 
L 489.105564 179.162208 
L 490.009794 159.522465 
L 490.914023 90.191883 
L 491.818252 34.912675 
L 492.722482 44.508292 
L 494.530941 171.500782 
L 495.43517 172.141344 
L 497.243629 45.307913 
L 498.147859 34.44399 
L 499.052088 88.8858 
L 499.956318 158.57979 
L 500.860547 179.449631 
L 501.764777 132.307684 
L 502.669006 60.49604 
L 503.573235 30.037996 
L 504.477465 68.936531 
L 505.381694 141.428518 
L 506.285924 180.865156 
L 507.190153 150.988582 
L 508.094383 79.267179 
L 508.998612 31.641277 
L 509.902842 51.89791 
L 510.807071 121.413218 
L 511.711301 176.275155 
L 512.61553 166.043903 
L 514.423989 39.126127 
L 515.328218 39.127218 
L 517.136677 166.045268 
L 518.040907 176.274353 
L 518.945136 121.410991 
L 519.849366 51.896301 
L 520.753595 31.641768 
L 521.657825 79.269317 
L 522.562054 150.990402 
L 523.466284 180.864985 
L 524.370513 141.426513 
L 525.274742 68.934534 
L 526.178972 30.037843 
L 527.083201 60.497874 
L 527.987431 132.309816 
L 528.89166 179.4501 
L 529.79589 158.578168 
L 530.700119 88.883576 
L 531.604349 34.44321 
L 532.508578 45.309297 
L 534.317037 172.142421 
L 535.221267 171.499669 
L 537.029725 44.506944 
L 537.933955 34.913491 
L 538.838184 90.194114 
L 539.742414 159.524061 
L 540.646643 179.161699 
L 541.550873 131.052274 
L 542.455102 59.427373 
L 543.359332 30.138595 
L 544.263561 70.113911 
L 545.167791 142.600198 
L 546.07202 180.953899 
L 546.97625 149.912798 
L 547.880479 78.01594 
L 548.784708 31.364962 
L 549.688938 52.850562 
L 550.593167 122.718976 
L 551.497397 176.733507 
L 552.401626 165.233443 
L 554.210085 38.494907 
L 555.114315 39.779261 
L 556.922774 166.836715 
L 557.827003 175.79378 
L 558.731233 120.100231 
L 559.635462 50.960462 
L 560.539691 31.941259 
L 561.443921 80.528785 
L 562.34815 152.051896 
L 563.25238 180.752574 
L 564.156609 140.243544 
L 565.060839 67.768627 
L 565.965068 29.960924 
L 566.869298 61.58066 
L 567.773527 133.556804 
L 568.677757 179.714811 
L 569.581986 157.617229 
L 570.486216 87.58047 
L 571.390445 33.996006 
L 572.294674 46.129152 
L 574.103133 172.763163 
L 575.007363 170.837306 
L 576.815822 43.725082 
L 577.720051 35.405109 
L 578.624281 91.507218 
L 579.52851 160.451392 
L 580.43274 178.850672 
L 581.336969 129.788848 
L 582.241198 58.373135 
L 583.145428 30.262808 
L 584.049657 71.302373 
L 584.953887 143.760245 
L 584.953887 143.760245 
" clip-path="url(#pf409346783)" style="fill: none; stroke: #1f77b4; stroke-width: 1.5; stroke-linecap: square"/>
   </g>
   <g id="patch_8">
    <path d="M 342.846449 188.638125 
L 342.846449 22.318125 
" style="fill: none; stroke: #000000; stroke-width: 0.8; stroke-linejoin: miter; stroke-linecap: square"/>
   </g>
   <g id="patch_9">
    <path d="M 596.482812 188.638125 
L 596.482812 22.318125 
" style="fill: none; stroke: #000000; stroke-width: 0.8; stroke-linejoin: miter; stroke-linecap: square"/>
   </g>
   <g id="patch_10">
    <path d="M 342.846449 188.638125 
L 596.482812 188.638125 
" style="fill: none; stroke: #000000; stroke-width: 0.8; stroke-linejoin: miter; stroke-linecap: square"/>
   </g>
   <g id="patch_11">
    <path d="M 342.846449 22.318125 
L 596.482812 22.318125 
" style="fill: none; stroke: #000000; stroke-width: 0.8; stroke-linejoin: miter; stroke-linecap: square"/>
   </g>
   <g id="text_27">
    <!-- First 256 Positions of PE -->
    <g transform="translate(398.282443 16.318125) scale(0.12 -0.12)">
     <use xlink:href="#DejaVuSans-46"/>
     <use xlink:href="#DejaVuSans-69" transform="translate(50.269531 0)"/>
     <use xlink:href="#DejaVuSans-72" transform="translate(78.052734 0)"/>
     <use xlink:href="#DejaVuSans-73" transform="translate(119.166016 0)"/>
     <use xlink:href="#DejaVuSans-74" transform="translate(171.265625 0)"/>
     <use xlink:href="#DejaVuSans-20" transform="translate(210.474609 0)"/>
     <use xlink:href="#DejaVuSans-32" transform="translate(242.261719 0)"/>
     <use xlink:href="#DejaVuSans-35" transform="translate(305.884766 0)"/>
     <use xlink:href="#DejaVuSans-36" transform="translate(369.507812 0)"/>
     <use xlink:href="#DejaVuSans-20" transform="translate(433.130859 0)"/>
     <use xlink:href="#DejaVuSans-50" transform="translate(464.917969 0)"/>
     <use xlink:href="#DejaVuSans-6f" transform="translate(521.595703 0)"/>
     <use xlink:href="#DejaVuSans-73" transform="translate(582.777344 0)"/>
     <use xlink:href="#DejaVuSans-69" transform="translate(634.876953 0)"/>
     <use xlink:href="#DejaVuSans-74" transform="translate(662.660156 0)"/>
     <use xlink:href="#DejaVuSans-69" transform="translate(701.869141 0)"/>
     <use xlink:href="#DejaVuSans-6f" transform="translate(729.652344 0)"/>
     <use xlink:href="#DejaVuSans-6e" transform="translate(790.833984 0)"/>
     <use xlink:href="#DejaVuSans-73" transform="translate(854.212891 0)"/>
     <use xlink:href="#DejaVuSans-20" transform="translate(906.3125 0)"/>
     <use xlink:href="#DejaVuSans-6f" transform="translate(938.099609 0)"/>
     <use xlink:href="#DejaVuSans-66" transform="translate(999.28125 0)"/>
     <use xlink:href="#DejaVuSans-20" transform="translate(1034.486328 0)"/>
     <use xlink:href="#DejaVuSans-50" transform="translate(1066.273438 0)"/>
     <use xlink:href="#DejaVuSans-45" transform="translate(1126.576172 0)"/>
    </g>
   </g>
  </g>
 </g>
 <defs>
  <clipPath id="pe15d79d4ed">
   <rect x="38.482813" y="22.318125" width="253.636364" height="166.32"/>
  </clipPath>
  <clipPath id="pf409346783">
   <rect x="342.846449" y="22.318125" width="253.636364" height="166.32"/>
  </clipPath>
 </defs>
</svg>
